<svg width="1080" height="1080" viewBox="0 0 1080 1080" fill="none" xmlns="http://www.w3.org/2000/svg">
<path fill-rule="evenodd" clip-rule="evenodd" d="M230 824.694L288.308 507L323.808 507L323.91 507L324.308 507H355.808H355.82H356.308L356.308 507.001C377.334 507.065 397.405 511.171 415.392 519.092C433.521 527.074 449.177 538.775 461.467 553.525C473.756 568.275 482.438 585.787 487.017 605.059C491.596 624.331 491.982 644.987 488.154 665.847C484.325 686.707 476.357 707.363 464.704 726.635C453.05 745.907 437.941 763.418 420.237 778.168C402.533 792.919 382.582 804.619 361.523 812.602C340.629 820.522 319.05 824.629 298 824.693L298 824.694H297.5H266H265.5H230ZM356.308 515C396.886 515 432.892 530.855 456.405 559.076L353.814 644.552C349.188 639 342.105 635.881 334.122 635.881L356.308 515ZM480.081 673.158C489.466 633.299 482.515 594.263 460.759 564.64L354.671 645.647C358.951 651.475 360.318 659.154 358.472 666.996L480.081 673.158ZM477.523 682.705C465.603 722.355 438.49 758.566 402.15 783.373L343.141 688.679C350.29 683.798 355.624 676.674 357.969 668.874L477.523 682.705ZM299.375 815.964C331.619 816.316 364.995 806.599 394.719 788.205L341.679 689.629C335.831 693.248 329.265 695.159 322.922 695.09L299.375 815.964Z" fill="#FFC54D"/>
<path fill-rule="evenodd" clip-rule="evenodd" d="M391.5 467H391V466.999C369.962 466.934 349.137 462.759 329.697 454.707C326.898 453.547 324.137 452.311 321.414 451H459V467H391.5ZM459 436H296.358C290.105 431.442 284.176 426.43 278.62 421H459V436ZM255.118 392C258.415 397.199 262.009 402.207 265.882 407H459V392H255.118ZM247.695 379C245.742 375.18 243.94 371.279 242.293 367.303C241.566 365.547 240.87 363.779 240.206 362H459V379H247.695ZM232.026 331C233.051 337.41 234.462 343.755 236.252 350H459V331H232.026ZM230.746 321C230.25 315.857 230 310.685 230 305.5C230 304.666 230.006 303.833 230.019 303H459V321H230.746ZM232.906 275C231.637 281.6 230.78 288.279 230.342 295H459V275H232.906ZM234.179 269C235.912 261.528 238.179 254.176 240.968 247H459V269H234.179ZM253.87 221C249.561 228.019 245.785 235.372 242.584 243H459V221H253.87ZM256.407 217C261.773 208.81 267.882 201.109 274.667 194H459V217H256.407ZM317.405 162C302.757 169.563 289.33 179.337 277.605 191H459V162H317.405ZM319.375 161C322.755 159.313 326.197 157.743 329.697 156.293C349.137 148.241 369.962 144.066 391 144.001V144H391.452L391.5 144L459 144V161H319.375Z" fill="#EA4335"/>
<path fill-rule="evenodd" clip-rule="evenodd" d="M775.578 792.578C748.556 812.933 714.937 825 678.5 825C589.306 825 517 752.694 517 663.5C517 574.306 589.306 502 678.5 502C767.694 502 840 574.306 840 663.5C840 675.874 838.608 687.924 835.973 699.5H682.5L775.578 792.578ZM700 599C700 615.569 686.569 629 670 629C653.431 629 640 615.569 640 599C640 582.431 653.431 569 670 569C686.569 569 700 582.431 700 599Z" fill="#53D851"/>
<circle cx="676.5" cy="587.5" r="11.5" fill="#FFC54D"/>
<mask id="mask0_31_2" style="mask-type:alpha" maskUnits="userSpaceOnUse" x="591" y="551" width="276" height="276">
<circle cx="729" cy="689" r="138" fill="#36AE7C"/>
</mask>
<g mask="url(#mask0_31_2)">
<path d="M829.999 817.342C842.813 804.528 852.978 789.315 859.913 772.572C866.848 755.829 870.418 737.884 870.418 719.762H732.418L829.999 817.342Z" fill="#EA4335"/>
</g>
<path d="M531.847 505.2L518.818 506.324C517.403 506.441 516.234 506.31 515.313 505.932C514.404 505.526 513.659 504.562 513.079 503.041L512.231 500.821C511.65 499.3 511.567 498.096 511.982 497.207C512.409 496.291 513.189 495.404 514.322 494.548L524.785 486.703C525.144 486.471 525.437 486.406 525.664 486.508C525.912 486.602 526.11 486.844 526.26 487.235L527.813 491.304C527.962 491.694 527.984 492.028 527.877 492.304C527.783 492.552 527.553 492.781 527.186 492.992L519.245 498.744C519.055 498.863 518.934 498.98 518.884 499.094C518.853 499.199 518.873 499.345 518.944 499.53C519.015 499.715 519.097 499.837 519.19 499.895C519.303 499.946 519.471 499.953 519.692 499.915L529.446 498.911C529.86 498.823 530.189 498.851 530.432 498.994C530.687 499.108 530.89 499.361 531.039 499.751L532.592 503.821C532.742 504.211 532.755 504.524 532.633 504.759C532.531 504.986 532.269 505.133 531.847 505.2ZM537.274 507.12L531.227 480.181C531.119 479.774 531.105 479.462 531.186 479.242C531.28 478.995 531.522 478.796 531.913 478.647L536.383 476.94C536.774 476.791 537.097 476.774 537.352 476.888C537.621 476.974 537.809 477.22 537.917 477.626L543.964 504.565C544.072 504.972 544.075 505.288 543.973 505.516C543.9 505.755 543.668 505.95 543.278 506.099L538.807 507.806C538.417 507.955 538.084 507.976 537.807 507.87C537.56 507.776 537.382 507.526 537.274 507.12ZM560.763 490.309L550.3 498.155C549.941 498.386 549.638 498.455 549.39 498.361C549.163 498.259 548.975 498.013 548.825 497.623L547.272 493.553C547.123 493.163 547.095 492.844 547.189 492.596C547.295 492.32 547.532 492.076 547.899 491.865L555.841 486.113C556.03 485.994 556.14 485.881 556.171 485.775C556.222 485.662 556.212 485.512 556.141 485.327C556.07 485.142 555.978 485.024 555.865 484.974C555.772 484.915 555.614 484.904 555.393 484.942L545.639 485.946C545.225 486.034 544.89 486.02 544.634 485.906C544.392 485.763 544.196 485.496 544.046 485.106L542.493 481.036C542.344 480.646 542.32 480.337 542.421 480.11C542.544 479.875 542.816 479.724 543.238 479.657L556.267 478.533C557.682 478.416 558.844 478.561 559.753 478.968C560.675 479.346 561.426 480.295 562.006 481.816L562.854 484.036C563.435 485.557 563.511 486.776 563.084 487.692C562.67 488.581 561.896 489.453 560.763 490.309Z" fill="#EA4335"/>
<path d="M497.539 165.716L499.139 162.944C500.549 163.758 501.797 164.148 502.883 164.114C503.981 164.062 504.821 163.531 505.404 162.521C505.668 162.064 506.011 161.271 506.433 160.144C506.867 158.997 507.221 158.185 507.496 157.709C508.321 156.28 509.344 155.41 510.565 155.099C511.798 154.768 512.976 154.928 514.1 155.577C515.757 156.534 516.851 157.521 517.382 158.539L515.776 160.66C515.091 160.57 514.273 160.249 513.32 159.699C512.596 159.281 511.816 159.796 510.98 161.244C510.683 161.759 510.37 162.455 510.042 163.332C509.724 164.19 509.455 164.81 509.235 165.191C508.575 166.334 507.723 167.061 506.68 167.373C505.666 167.677 504.692 167.648 503.757 167.286L503.625 167.515C504.406 168.143 504.912 168.982 505.145 170.031C505.397 171.091 505.193 172.192 504.533 173.336C504.313 173.717 503.905 174.269 503.31 174.992C502.725 175.696 502.285 176.305 501.988 176.82C501.152 178.268 501.096 179.201 501.82 179.619C502.772 180.169 503.459 180.718 503.879 181.265L502.845 183.717C501.699 183.766 500.297 183.312 498.639 182.355C497.515 181.706 496.788 180.766 496.458 179.534C496.117 178.32 496.359 176.999 497.184 175.57C497.459 175.094 497.979 174.391 498.744 173.461C499.521 172.512 500.041 171.809 500.305 171.352C500.888 170.342 500.923 169.359 500.408 168.401C499.905 167.425 498.949 166.53 497.539 165.716ZM530.013 180.768L528.412 183.541C527.002 182.727 525.749 182.346 524.652 182.398C523.565 182.432 522.731 182.953 522.148 183.963C521.884 184.42 521.535 185.222 521.102 186.369C520.679 187.497 520.33 188.299 520.055 188.775C519.23 190.204 518.207 191.074 516.986 191.385C515.754 191.716 514.576 191.556 513.452 190.907C511.794 189.95 510.7 188.963 510.17 187.945L511.776 185.824C512.46 185.915 513.279 186.235 514.231 186.785C514.955 187.203 515.735 186.688 516.571 185.24C516.868 184.725 517.176 184.039 517.493 183.181C517.822 182.304 518.096 181.675 518.316 181.293C518.976 180.15 519.819 179.417 520.843 179.094C521.887 178.783 522.876 178.807 523.811 179.169L523.943 178.94C523.162 178.312 522.641 177.477 522.378 176.437C522.145 175.388 522.359 174.292 523.019 173.149C523.239 172.767 523.641 172.225 524.225 171.521C524.821 170.798 525.267 170.179 525.564 169.664C526.4 168.216 526.456 167.283 525.732 166.865C524.779 166.315 524.093 165.766 523.672 165.219L524.706 162.768C525.853 162.718 527.255 163.172 528.912 164.129C530.036 164.778 530.763 165.718 531.094 166.951C531.435 168.164 531.193 169.485 530.368 170.914C530.093 171.39 529.567 172.103 528.791 173.051C528.025 173.981 527.51 174.675 527.246 175.132C526.663 176.142 526.623 177.135 527.127 178.111C527.641 179.069 528.603 179.954 530.013 180.768Z" fill="#53D851"/>
<path d="M799.168 481L797 498.091L812.176 495.182L810.731 510.091L825.908 506.818L824.101 521L840 518.818V533" stroke="#FFC54D" stroke-width="5"/>
<path d="M503 776C503 783.18 497.18 789 490 789C482.82 789 477 783.18 477 776C477 768.82 482.82 763 490 763C497.18 763 503 768.82 503 776ZM482.251 776C482.251 780.279 485.721 783.749 490 783.749C494.279 783.749 497.749 780.279 497.749 776C497.749 771.721 494.279 768.251 490 768.251C485.721 768.251 482.251 771.721 482.251 776Z" fill="#4285F4"/>
<path d="M738.88 728V727.06H740.84V721.84H740.76L739.14 723.57L738.45 722.95L740.23 721.02H741.95V727.06H743.65V728H738.88ZM746.996 728.12C746.563 728.12 746.186 728.04 745.866 727.88C745.546 727.713 745.283 727.477 745.076 727.17C744.869 726.863 744.716 726.487 744.616 726.04C744.516 725.593 744.466 725.083 744.466 724.51C744.466 723.943 744.516 723.437 744.616 722.99C744.716 722.537 744.869 722.157 745.076 721.85C745.283 721.543 745.546 721.31 745.866 721.15C746.186 720.983 746.563 720.9 746.996 720.9C747.863 720.9 748.499 721.217 748.906 721.85C749.319 722.483 749.526 723.37 749.526 724.51C749.526 725.65 749.319 726.537 748.906 727.17C748.499 727.803 747.863 728.12 746.996 728.12ZM746.996 727.16C747.236 727.16 747.439 727.113 747.606 727.02C747.779 726.92 747.919 726.78 748.026 726.6C748.133 726.42 748.209 726.207 748.256 725.96C748.303 725.707 748.326 725.427 748.326 725.12V723.9C748.326 723.593 748.303 723.317 748.256 723.07C748.209 722.817 748.133 722.6 748.026 722.42C747.919 722.24 747.779 722.103 747.606 722.01C747.439 721.91 747.236 721.86 746.996 721.86C746.756 721.86 746.549 721.91 746.376 722.01C746.209 722.103 746.073 722.24 745.966 722.42C745.859 722.6 745.783 722.817 745.736 723.07C745.689 723.317 745.666 723.593 745.666 723.9V725.12C745.666 725.427 745.689 725.707 745.736 725.96C745.783 726.207 745.859 726.42 745.966 726.6C746.073 726.78 746.209 726.92 746.376 727.02C746.549 727.113 746.756 727.16 746.996 727.16ZM750.872 728V727.06H752.832V721.84H752.752L751.132 723.57L750.442 722.95L752.222 721.02H753.942V727.06H755.642V728H750.872ZM756.868 728V727.06H758.828V721.84H758.748L757.128 723.57L756.438 722.95L758.218 721.02H759.938V727.06H761.638V728H756.868ZM762.864 728V727.06H764.824V721.84H764.744L763.124 723.57L762.434 722.95L764.214 721.02H765.934V727.06H767.634V728H762.864ZM770.98 728.12C770.547 728.12 770.17 728.04 769.85 727.88C769.53 727.713 769.267 727.477 769.06 727.17C768.854 726.863 768.7 726.487 768.6 726.04C768.5 725.593 768.45 725.083 768.45 724.51C768.45 723.943 768.5 723.437 768.6 722.99C768.7 722.537 768.854 722.157 769.06 721.85C769.267 721.543 769.53 721.31 769.85 721.15C770.17 720.983 770.547 720.9 770.98 720.9C771.847 720.9 772.484 721.217 772.89 721.85C773.304 722.483 773.51 723.37 773.51 724.51C773.51 725.65 773.304 726.537 772.89 727.17C772.484 727.803 771.847 728.12 770.98 728.12ZM770.98 727.16C771.22 727.16 771.424 727.113 771.59 727.02C771.764 726.92 771.904 726.78 772.01 726.6C772.117 726.42 772.194 726.207 772.24 725.96C772.287 725.707 772.31 725.427 772.31 725.12V723.9C772.31 723.593 772.287 723.317 772.24 723.07C772.194 722.817 772.117 722.6 772.01 722.42C771.904 722.24 771.764 722.103 771.59 722.01C771.424 721.91 771.22 721.86 770.98 721.86C770.74 721.86 770.534 721.91 770.36 722.01C770.194 722.103 770.057 722.24 769.95 722.42C769.844 722.6 769.767 722.817 769.72 723.07C769.674 723.317 769.65 723.593 769.65 723.9V725.12C769.65 725.427 769.674 725.707 769.72 725.96C769.767 726.207 769.844 726.42 769.95 726.6C770.057 726.78 770.194 726.92 770.36 727.02C770.534 727.113 770.74 727.16 770.98 727.16ZM774.857 728V727.06H776.817V721.84H776.737L775.117 723.57L774.427 722.95L776.207 721.02H777.927V727.06H779.627V728H774.857ZM782.973 728.12C782.539 728.12 782.163 728.04 781.843 727.88C781.523 727.713 781.259 727.477 781.053 727.17C780.846 726.863 780.693 726.487 780.593 726.04C780.493 725.593 780.443 725.083 780.443 724.51C780.443 723.943 780.493 723.437 780.593 722.99C780.693 722.537 780.846 722.157 781.053 721.85C781.259 721.543 781.523 721.31 781.843 721.15C782.163 720.983 782.539 720.9 782.973 720.9C783.839 720.9 784.476 721.217 784.883 721.85C785.296 722.483 785.503 723.37 785.503 724.51C785.503 725.65 785.296 726.537 784.883 727.17C784.476 727.803 783.839 728.12 782.973 728.12ZM782.973 727.16C783.213 727.16 783.416 727.113 783.583 727.02C783.756 726.92 783.896 726.78 784.003 726.6C784.109 726.42 784.186 726.207 784.233 725.96C784.279 725.707 784.303 725.427 784.303 725.12V723.9C784.303 723.593 784.279 723.317 784.233 723.07C784.186 722.817 784.109 722.6 784.003 722.42C783.896 722.24 783.756 722.103 783.583 722.01C783.416 721.91 783.213 721.86 782.973 721.86C782.733 721.86 782.526 721.91 782.353 722.01C782.186 722.103 782.049 722.24 781.943 722.42C781.836 722.6 781.759 722.817 781.713 723.07C781.666 723.317 781.643 723.593 781.643 723.9V725.12C781.643 725.427 781.666 725.707 781.713 725.96C781.759 726.207 781.836 726.42 781.943 726.6C782.049 726.78 782.186 726.92 782.353 727.02C782.526 727.113 782.733 727.16 782.973 727.16ZM786.849 728V727.06H788.809V721.84H788.729L787.109 723.57L786.419 722.95L788.199 721.02H789.919V727.06H791.619V728H786.849ZM792.845 728V727.06H794.805V721.84H794.725L793.105 723.57L792.415 722.95L794.195 721.02H795.915V727.06H797.615V728H792.845ZM798.841 728V727.06H800.801V721.84H800.721L799.101 723.57L798.411 722.95L800.191 721.02H801.911V727.06H803.611V728H798.841ZM806.957 728.12C806.524 728.12 806.147 728.04 805.827 727.88C805.507 727.713 805.244 727.477 805.037 727.17C804.83 726.863 804.677 726.487 804.577 726.04C804.477 725.593 804.427 725.083 804.427 724.51C804.427 723.943 804.477 723.437 804.577 722.99C804.677 722.537 804.83 722.157 805.037 721.85C805.244 721.543 805.507 721.31 805.827 721.15C806.147 720.983 806.524 720.9 806.957 720.9C807.824 720.9 808.46 721.217 808.867 721.85C809.28 722.483 809.487 723.37 809.487 724.51C809.487 725.65 809.28 726.537 808.867 727.17C808.46 727.803 807.824 728.12 806.957 728.12ZM806.957 727.16C807.197 727.16 807.4 727.113 807.567 727.02C807.74 726.92 807.88 726.78 807.987 726.6C808.094 726.42 808.17 726.207 808.217 725.96C808.264 725.707 808.287 725.427 808.287 725.12V723.9C808.287 723.593 808.264 723.317 808.217 723.07C808.17 722.817 808.094 722.6 807.987 722.42C807.88 722.24 807.74 722.103 807.567 722.01C807.4 721.91 807.197 721.86 806.957 721.86C806.717 721.86 806.51 721.91 806.337 722.01C806.17 722.103 806.034 722.24 805.927 722.42C805.82 722.6 805.744 722.817 805.697 723.07C805.65 723.317 805.627 723.593 805.627 723.9V725.12C805.627 725.427 805.65 725.707 805.697 725.96C805.744 726.207 805.82 726.42 805.927 726.6C806.034 726.78 806.17 726.92 806.337 727.02C806.51 727.113 806.717 727.16 806.957 727.16ZM810.833 728V727.06H812.793V721.84H812.713L811.093 723.57L810.403 722.95L812.183 721.02H813.903V727.06H815.603V728H810.833ZM818.949 728.12C818.516 728.12 818.139 728.04 817.819 727.88C817.499 727.713 817.236 727.477 817.029 727.17C816.823 726.863 816.669 726.487 816.569 726.04C816.469 725.593 816.419 725.083 816.419 724.51C816.419 723.943 816.469 723.437 816.569 722.99C816.669 722.537 816.823 722.157 817.029 721.85C817.236 721.543 817.499 721.31 817.819 721.15C818.139 720.983 818.516 720.9 818.949 720.9C819.816 720.9 820.453 721.217 820.859 721.85C821.273 722.483 821.479 723.37 821.479 724.51C821.479 725.65 821.273 726.537 820.859 727.17C820.453 727.803 819.816 728.12 818.949 728.12ZM818.949 727.16C819.189 727.16 819.393 727.113 819.559 727.02C819.733 726.92 819.873 726.78 819.979 726.6C820.086 726.42 820.163 726.207 820.209 725.96C820.256 725.707 820.279 725.427 820.279 725.12V723.9C820.279 723.593 820.256 723.317 820.209 723.07C820.163 722.817 820.086 722.6 819.979 722.42C819.873 722.24 819.733 722.103 819.559 722.01C819.393 721.91 819.189 721.86 818.949 721.86C818.709 721.86 818.503 721.91 818.329 722.01C818.163 722.103 818.026 722.24 817.919 722.42C817.813 722.6 817.736 722.817 817.689 723.07C817.643 723.317 817.619 723.593 817.619 723.9V725.12C817.619 725.427 817.643 725.707 817.689 725.96C817.736 726.207 817.813 726.42 817.919 726.6C818.026 726.78 818.163 726.92 818.329 727.02C818.503 727.113 818.709 727.16 818.949 727.16ZM822.825 728V727.06H824.785V721.84H824.705L823.085 723.57L822.395 722.95L824.175 721.02H825.895V727.06H827.595V728H822.825ZM830.941 728.12C830.508 728.12 830.131 728.04 829.811 727.88C829.491 727.713 829.228 727.477 829.021 727.17C828.815 726.863 828.661 726.487 828.561 726.04C828.461 725.593 828.411 725.083 828.411 724.51C828.411 723.943 828.461 723.437 828.561 722.99C828.661 722.537 828.815 722.157 829.021 721.85C829.228 721.543 829.491 721.31 829.811 721.15C830.131 720.983 830.508 720.9 830.941 720.9C831.808 720.9 832.445 721.217 832.851 721.85C833.265 722.483 833.471 723.37 833.471 724.51C833.471 725.65 833.265 726.537 832.851 727.17C832.445 727.803 831.808 728.12 830.941 728.12ZM830.941 727.16C831.181 727.16 831.385 727.113 831.551 727.02C831.725 726.92 831.865 726.78 831.971 726.6C832.078 726.42 832.155 726.207 832.201 725.96C832.248 725.707 832.271 725.427 832.271 725.12V723.9C832.271 723.593 832.248 723.317 832.201 723.07C832.155 722.817 832.078 722.6 831.971 722.42C831.865 722.24 831.725 722.103 831.551 722.01C831.385 721.91 831.181 721.86 830.941 721.86C830.701 721.86 830.495 721.91 830.321 722.01C830.155 722.103 830.018 722.24 829.911 722.42C829.805 722.6 829.728 722.817 829.681 723.07C829.635 723.317 829.611 723.593 829.611 723.9V725.12C829.611 725.427 829.635 725.707 829.681 725.96C829.728 726.207 829.805 726.42 829.911 726.6C830.018 726.78 830.155 726.92 830.321 727.02C830.495 727.113 830.701 727.16 830.941 727.16ZM834.818 728V727.06H836.778V721.84H836.698L835.078 723.57L834.388 722.95L836.168 721.02H837.888V727.06H839.587V728H834.818ZM840.814 728V727.06H842.774V721.84H842.694L841.074 723.57L840.384 722.95L842.164 721.02H843.884V727.06H845.584V728H840.814ZM848.93 728.12C848.496 728.12 848.12 728.04 847.8 727.88C847.48 727.713 847.216 727.477 847.01 727.17C846.803 726.863 846.65 726.487 846.55 726.04C846.45 725.593 846.4 725.083 846.4 724.51C846.4 723.943 846.45 723.437 846.55 722.99C846.65 722.537 846.803 722.157 847.01 721.85C847.216 721.543 847.48 721.31 847.8 721.15C848.12 720.983 848.496 720.9 848.93 720.9C849.796 720.9 850.433 721.217 850.84 721.85C851.253 722.483 851.46 723.37 851.46 724.51C851.46 725.65 851.253 726.537 850.84 727.17C850.433 727.803 849.796 728.12 848.93 728.12ZM848.93 727.16C849.17 727.16 849.373 727.113 849.54 727.02C849.713 726.92 849.853 726.78 849.96 726.6C850.066 726.42 850.143 726.207 850.19 725.96C850.236 725.707 850.26 725.427 850.26 725.12V723.9C850.26 723.593 850.236 723.317 850.19 723.07C850.143 722.817 850.066 722.6 849.96 722.42C849.853 722.24 849.713 722.103 849.54 722.01C849.373 721.91 849.17 721.86 848.93 721.86C848.69 721.86 848.483 721.91 848.31 722.01C848.143 722.103 848.006 722.24 847.9 722.42C847.793 722.6 847.716 722.817 847.67 723.07C847.623 723.317 847.6 723.593 847.6 723.9V725.12C847.6 725.427 847.623 725.707 847.67 725.96C847.716 726.207 847.793 726.42 847.9 726.6C848.006 726.78 848.143 726.92 848.31 727.02C848.483 727.113 848.69 727.16 848.93 727.16ZM852.806 728V727.06H854.766V721.84H854.686L853.066 723.57L852.376 722.95L854.156 721.02H855.876V727.06H857.576V728H852.806ZM860.922 728.12C860.489 728.12 860.112 728.04 859.792 727.88C859.472 727.713 859.209 727.477 859.002 727.17C858.795 726.863 858.642 726.487 858.542 726.04C858.442 725.593 858.392 725.083 858.392 724.51C858.392 723.943 858.442 723.437 858.542 722.99C858.642 722.537 858.795 722.157 859.002 721.85C859.209 721.543 859.472 721.31 859.792 721.15C860.112 720.983 860.489 720.9 860.922 720.9C861.789 720.9 862.425 721.217 862.832 721.85C863.245 722.483 863.452 723.37 863.452 724.51C863.452 725.65 863.245 726.537 862.832 727.17C862.425 727.803 861.789 728.12 860.922 728.12ZM860.922 727.16C861.162 727.16 861.365 727.113 861.532 727.02C861.705 726.92 861.845 726.78 861.952 726.6C862.059 726.42 862.135 726.207 862.182 725.96C862.229 725.707 862.252 725.427 862.252 725.12V723.9C862.252 723.593 862.229 723.317 862.182 723.07C862.135 722.817 862.059 722.6 861.952 722.42C861.845 722.24 861.705 722.103 861.532 722.01C861.365 721.91 861.162 721.86 860.922 721.86C860.682 721.86 860.475 721.91 860.302 722.01C860.135 722.103 859.999 722.24 859.892 722.42C859.785 722.6 859.709 722.817 859.662 723.07C859.615 723.317 859.592 723.593 859.592 723.9V725.12C859.592 725.427 859.615 725.707 859.662 725.96C859.709 726.207 859.785 726.42 859.892 726.6C859.999 726.78 860.135 726.92 860.302 727.02C860.475 727.113 860.682 727.16 860.922 727.16ZM748.09 738.12C747.657 738.12 747.28 738.04 746.96 737.88C746.64 737.713 746.377 737.477 746.17 737.17C745.963 736.863 745.81 736.487 745.71 736.04C745.61 735.593 745.56 735.083 745.56 734.51C745.56 733.943 745.61 733.437 745.71 732.99C745.81 732.537 745.963 732.157 746.17 731.85C746.377 731.543 746.64 731.31 746.96 731.15C747.28 730.983 747.657 730.9 748.09 730.9C748.957 730.9 749.593 731.217 750 731.85C750.413 732.483 750.62 733.37 750.62 734.51C750.62 735.65 750.413 736.537 750 737.17C749.593 737.803 748.957 738.12 748.09 738.12ZM748.09 737.16C748.33 737.16 748.533 737.113 748.7 737.02C748.873 736.92 749.013 736.78 749.12 736.6C749.227 736.42 749.303 736.207 749.35 735.96C749.397 735.707 749.42 735.427 749.42 735.12V733.9C749.42 733.593 749.397 733.317 749.35 733.07C749.303 732.817 749.227 732.6 749.12 732.42C749.013 732.24 748.873 732.103 748.7 732.01C748.533 731.91 748.33 731.86 748.09 731.86C747.85 731.86 747.643 731.91 747.47 732.01C747.303 732.103 747.167 732.24 747.06 732.42C746.953 732.6 746.877 732.817 746.83 733.07C746.783 733.317 746.76 733.593 746.76 733.9V735.12C746.76 735.427 746.783 735.707 746.83 735.96C746.877 736.207 746.953 736.42 747.06 736.6C747.167 736.78 747.303 736.92 747.47 737.02C747.643 737.113 747.85 737.16 748.09 737.16ZM751.966 738V737.06H753.926V731.84H753.846L752.226 733.57L751.536 732.95L753.316 731.02H755.036V737.06H756.736V738H751.966ZM760.082 738.12C759.649 738.12 759.272 738.04 758.952 737.88C758.632 737.713 758.369 737.477 758.162 737.17C757.955 736.863 757.802 736.487 757.702 736.04C757.602 735.593 757.552 735.083 757.552 734.51C757.552 733.943 757.602 733.437 757.702 732.99C757.802 732.537 757.955 732.157 758.162 731.85C758.369 731.543 758.632 731.31 758.952 731.15C759.272 730.983 759.649 730.9 760.082 730.9C760.949 730.9 761.585 731.217 761.992 731.85C762.405 732.483 762.612 733.37 762.612 734.51C762.612 735.65 762.405 736.537 761.992 737.17C761.585 737.803 760.949 738.12 760.082 738.12ZM760.082 737.16C760.322 737.16 760.525 737.113 760.692 737.02C760.865 736.92 761.005 736.78 761.112 736.6C761.219 736.42 761.295 736.207 761.342 735.96C761.389 735.707 761.412 735.427 761.412 735.12V733.9C761.412 733.593 761.389 733.317 761.342 733.07C761.295 732.817 761.219 732.6 761.112 732.42C761.005 732.24 760.865 732.103 760.692 732.01C760.525 731.91 760.322 731.86 760.082 731.86C759.842 731.86 759.635 731.91 759.462 732.01C759.295 732.103 759.159 732.24 759.052 732.42C758.945 732.6 758.869 732.817 758.822 733.07C758.775 733.317 758.752 733.593 758.752 733.9V735.12C758.752 735.427 758.775 735.707 758.822 735.96C758.869 736.207 758.945 736.42 759.052 736.6C759.159 736.78 759.295 736.92 759.462 737.02C759.635 737.113 759.842 737.16 760.082 737.16ZM766.078 738.12C765.645 738.12 765.268 738.04 764.948 737.88C764.628 737.713 764.365 737.477 764.158 737.17C763.951 736.863 763.798 736.487 763.698 736.04C763.598 735.593 763.548 735.083 763.548 734.51C763.548 733.943 763.598 733.437 763.698 732.99C763.798 732.537 763.951 732.157 764.158 731.85C764.365 731.543 764.628 731.31 764.948 731.15C765.268 730.983 765.645 730.9 766.078 730.9C766.945 730.9 767.581 731.217 767.988 731.85C768.401 732.483 768.608 733.37 768.608 734.51C768.608 735.65 768.401 736.537 767.988 737.17C767.581 737.803 766.945 738.12 766.078 738.12ZM766.078 737.16C766.318 737.16 766.521 737.113 766.688 737.02C766.861 736.92 767.001 736.78 767.108 736.6C767.215 736.42 767.291 736.207 767.338 735.96C767.385 735.707 767.408 735.427 767.408 735.12V733.9C767.408 733.593 767.385 733.317 767.338 733.07C767.291 732.817 767.215 732.6 767.108 732.42C767.001 732.24 766.861 732.103 766.688 732.01C766.521 731.91 766.318 731.86 766.078 731.86C765.838 731.86 765.631 731.91 765.458 732.01C765.291 732.103 765.155 732.24 765.048 732.42C764.941 732.6 764.865 732.817 764.818 733.07C764.771 733.317 764.748 733.593 764.748 733.9V735.12C764.748 735.427 764.771 735.707 764.818 735.96C764.865 736.207 764.941 736.42 765.048 736.6C765.155 736.78 765.291 736.92 765.458 737.02C765.631 737.113 765.838 737.16 766.078 737.16ZM772.074 738.12C771.641 738.12 771.264 738.04 770.944 737.88C770.624 737.713 770.361 737.477 770.154 737.17C769.948 736.863 769.794 736.487 769.694 736.04C769.594 735.593 769.544 735.083 769.544 734.51C769.544 733.943 769.594 733.437 769.694 732.99C769.794 732.537 769.948 732.157 770.154 731.85C770.361 731.543 770.624 731.31 770.944 731.15C771.264 730.983 771.641 730.9 772.074 730.9C772.941 730.9 773.578 731.217 773.984 731.85C774.398 732.483 774.604 733.37 774.604 734.51C774.604 735.65 774.398 736.537 773.984 737.17C773.578 737.803 772.941 738.12 772.074 738.12ZM772.074 737.16C772.314 737.16 772.518 737.113 772.684 737.02C772.858 736.92 772.998 736.78 773.104 736.6C773.211 736.42 773.288 736.207 773.334 735.96C773.381 735.707 773.404 735.427 773.404 735.12V733.9C773.404 733.593 773.381 733.317 773.334 733.07C773.288 732.817 773.211 732.6 773.104 732.42C772.998 732.24 772.858 732.103 772.684 732.01C772.518 731.91 772.314 731.86 772.074 731.86C771.834 731.86 771.628 731.91 771.454 732.01C771.288 732.103 771.151 732.24 771.044 732.42C770.938 732.6 770.861 732.817 770.814 733.07C770.768 733.317 770.744 733.593 770.744 733.9V735.12C770.744 735.427 770.768 735.707 770.814 735.96C770.861 736.207 770.938 736.42 771.044 736.6C771.151 736.78 771.288 736.92 771.454 737.02C771.628 737.113 771.834 737.16 772.074 737.16ZM775.95 738V737.06H777.91V731.84H777.83L776.21 733.57L775.52 732.95L777.3 731.02H779.02V737.06H780.72V738H775.95ZM784.066 738.12C783.633 738.12 783.256 738.04 782.936 737.88C782.616 737.713 782.353 737.477 782.146 737.17C781.94 736.863 781.786 736.487 781.686 736.04C781.586 735.593 781.536 735.083 781.536 734.51C781.536 733.943 781.586 733.437 781.686 732.99C781.786 732.537 781.94 732.157 782.146 731.85C782.353 731.543 782.616 731.31 782.936 731.15C783.256 730.983 783.633 730.9 784.066 730.9C784.933 730.9 785.57 731.217 785.976 731.85C786.39 732.483 786.596 733.37 786.596 734.51C786.596 735.65 786.39 736.537 785.976 737.17C785.57 737.803 784.933 738.12 784.066 738.12ZM784.066 737.16C784.306 737.16 784.51 737.113 784.676 737.02C784.85 736.92 784.99 736.78 785.096 736.6C785.203 736.42 785.28 736.207 785.326 735.96C785.373 735.707 785.396 735.427 785.396 735.12V733.9C785.396 733.593 785.373 733.317 785.326 733.07C785.28 732.817 785.203 732.6 785.096 732.42C784.99 732.24 784.85 732.103 784.676 732.01C784.51 731.91 784.306 731.86 784.066 731.86C783.826 731.86 783.62 731.91 783.446 732.01C783.28 732.103 783.143 732.24 783.036 732.42C782.93 732.6 782.853 732.817 782.806 733.07C782.76 733.317 782.736 733.593 782.736 733.9V735.12C782.736 735.427 782.76 735.707 782.806 735.96C782.853 736.207 782.93 736.42 783.036 736.6C783.143 736.78 783.28 736.92 783.446 737.02C783.62 737.113 783.826 737.16 784.066 737.16ZM787.943 738V737.06H789.903V731.84H789.823L788.203 733.57L787.513 732.95L789.293 731.02H791.013V737.06H792.712V738H787.943ZM796.059 738.12C795.625 738.12 795.249 738.04 794.929 737.88C794.609 737.713 794.345 737.477 794.139 737.17C793.932 736.863 793.779 736.487 793.679 736.04C793.579 735.593 793.529 735.083 793.529 734.51C793.529 733.943 793.579 733.437 793.679 732.99C793.779 732.537 793.932 732.157 794.139 731.85C794.345 731.543 794.609 731.31 794.929 731.15C795.249 730.983 795.625 730.9 796.059 730.9C796.925 730.9 797.562 731.217 797.969 731.85C798.382 732.483 798.589 733.37 798.589 734.51C798.589 735.65 798.382 736.537 797.969 737.17C797.562 737.803 796.925 738.12 796.059 738.12ZM796.059 737.16C796.299 737.16 796.502 737.113 796.669 737.02C796.842 736.92 796.982 736.78 797.089 736.6C797.195 736.42 797.272 736.207 797.319 735.96C797.365 735.707 797.389 735.427 797.389 735.12V733.9C797.389 733.593 797.365 733.317 797.319 733.07C797.272 732.817 797.195 732.6 797.089 732.42C796.982 732.24 796.842 732.103 796.669 732.01C796.502 731.91 796.299 731.86 796.059 731.86C795.819 731.86 795.612 731.91 795.439 732.01C795.272 732.103 795.135 732.24 795.029 732.42C794.922 732.6 794.845 732.817 794.799 733.07C794.752 733.317 794.729 733.593 794.729 733.9V735.12C794.729 735.427 794.752 735.707 794.799 735.96C794.845 736.207 794.922 736.42 795.029 736.6C795.135 736.78 795.272 736.92 795.439 737.02C795.612 737.113 795.819 737.16 796.059 737.16ZM799.935 738V737.06H801.895V731.84H801.815L800.195 733.57L799.505 732.95L801.285 731.02H803.005V737.06H804.705V738H799.935ZM808.051 738.12C807.617 738.12 807.241 738.04 806.921 737.88C806.601 737.713 806.337 737.477 806.131 737.17C805.924 736.863 805.771 736.487 805.671 736.04C805.571 735.593 805.521 735.083 805.521 734.51C805.521 733.943 805.571 733.437 805.671 732.99C805.771 732.537 805.924 732.157 806.131 731.85C806.337 731.543 806.601 731.31 806.921 731.15C807.241 730.983 807.617 730.9 808.051 730.9C808.917 730.9 809.554 731.217 809.961 731.85C810.374 732.483 810.581 733.37 810.581 734.51C810.581 735.65 810.374 736.537 809.961 737.17C809.554 737.803 808.917 738.12 808.051 738.12ZM808.051 737.16C808.291 737.16 808.494 737.113 808.661 737.02C808.834 736.92 808.974 736.78 809.081 736.6C809.187 736.42 809.264 736.207 809.311 735.96C809.357 735.707 809.381 735.427 809.381 735.12V733.9C809.381 733.593 809.357 733.317 809.311 733.07C809.264 732.817 809.187 732.6 809.081 732.42C808.974 732.24 808.834 732.103 808.661 732.01C808.494 731.91 808.291 731.86 808.051 731.86C807.811 731.86 807.604 731.91 807.431 732.01C807.264 732.103 807.127 732.24 807.021 732.42C806.914 732.6 806.837 732.817 806.791 733.07C806.744 733.317 806.721 733.593 806.721 733.9V735.12C806.721 735.427 806.744 735.707 806.791 735.96C806.837 736.207 806.914 736.42 807.021 736.6C807.127 736.78 807.264 736.92 807.431 737.02C807.604 737.113 807.811 737.16 808.051 737.16ZM811.927 738V737.06H813.887V731.84H813.807L812.187 733.57L811.497 732.95L813.277 731.02H814.997V737.06H816.697V738H811.927ZM820.043 738.12C819.61 738.12 819.233 738.04 818.913 737.88C818.593 737.713 818.33 737.477 818.123 737.17C817.916 736.863 817.763 736.487 817.663 736.04C817.563 735.593 817.513 735.083 817.513 734.51C817.513 733.943 817.563 733.437 817.663 732.99C817.763 732.537 817.916 732.157 818.123 731.85C818.33 731.543 818.593 731.31 818.913 731.15C819.233 730.983 819.61 730.9 820.043 730.9C820.91 730.9 821.546 731.217 821.953 731.85C822.366 732.483 822.573 733.37 822.573 734.51C822.573 735.65 822.366 736.537 821.953 737.17C821.546 737.803 820.91 738.12 820.043 738.12ZM820.043 737.16C820.283 737.16 820.486 737.113 820.653 737.02C820.826 736.92 820.966 736.78 821.073 736.6C821.18 736.42 821.256 736.207 821.303 735.96C821.35 735.707 821.373 735.427 821.373 735.12V733.9C821.373 733.593 821.35 733.317 821.303 733.07C821.256 732.817 821.18 732.6 821.073 732.42C820.966 732.24 820.826 732.103 820.653 732.01C820.486 731.91 820.283 731.86 820.043 731.86C819.803 731.86 819.596 731.91 819.423 732.01C819.256 732.103 819.12 732.24 819.013 732.42C818.906 732.6 818.83 732.817 818.783 733.07C818.736 733.317 818.713 733.593 818.713 733.9V735.12C818.713 735.427 818.736 735.707 818.783 735.96C818.83 736.207 818.906 736.42 819.013 736.6C819.12 736.78 819.256 736.92 819.423 737.02C819.596 737.113 819.803 737.16 820.043 737.16ZM823.919 738V737.06H825.879V731.84H825.799L824.179 733.57L823.489 732.95L825.269 731.02H826.989V737.06H828.689V738H823.919ZM832.035 738.12C831.602 738.12 831.225 738.04 830.905 737.88C830.585 737.713 830.322 737.477 830.115 737.17C829.908 736.863 829.755 736.487 829.655 736.04C829.555 735.593 829.505 735.083 829.505 734.51C829.505 733.943 829.555 733.437 829.655 732.99C829.755 732.537 829.908 732.157 830.115 731.85C830.322 731.543 830.585 731.31 830.905 731.15C831.225 730.983 831.602 730.9 832.035 730.9C832.902 730.9 833.538 731.217 833.945 731.85C834.358 732.483 834.565 733.37 834.565 734.51C834.565 735.65 834.358 736.537 833.945 737.17C833.538 737.803 832.902 738.12 832.035 738.12ZM832.035 737.16C832.275 737.16 832.478 737.113 832.645 737.02C832.818 736.92 832.958 736.78 833.065 736.6C833.172 736.42 833.248 736.207 833.295 735.96C833.342 735.707 833.365 735.427 833.365 735.12V733.9C833.365 733.593 833.342 733.317 833.295 733.07C833.248 732.817 833.172 732.6 833.065 732.42C832.958 732.24 832.818 732.103 832.645 732.01C832.478 731.91 832.275 731.86 832.035 731.86C831.795 731.86 831.588 731.91 831.415 732.01C831.248 732.103 831.112 732.24 831.005 732.42C830.898 732.6 830.822 732.817 830.775 733.07C830.728 733.317 830.705 733.593 830.705 733.9V735.12C830.705 735.427 830.728 735.707 830.775 735.96C830.822 736.207 830.898 736.42 831.005 736.6C831.112 736.78 831.248 736.92 831.415 737.02C831.588 737.113 831.795 737.16 832.035 737.16ZM835.911 738V737.06H837.871V731.84H837.791L836.171 733.57L835.481 732.95L837.261 731.02H838.981V737.06H840.681V738H835.911ZM844.027 738.12C843.594 738.12 843.217 738.04 842.897 737.88C842.577 737.713 842.314 737.477 842.107 737.17C841.901 736.863 841.747 736.487 841.647 736.04C841.547 735.593 841.497 735.083 841.497 734.51C841.497 733.943 841.547 733.437 841.647 732.99C841.747 732.537 841.901 732.157 842.107 731.85C842.314 731.543 842.577 731.31 842.897 731.15C843.217 730.983 843.594 730.9 844.027 730.9C844.894 730.9 845.531 731.217 845.937 731.85C846.351 732.483 846.557 733.37 846.557 734.51C846.557 735.65 846.351 736.537 845.937 737.17C845.531 737.803 844.894 738.12 844.027 738.12ZM844.027 737.16C844.267 737.16 844.471 737.113 844.637 737.02C844.811 736.92 844.951 736.78 845.057 736.6C845.164 736.42 845.241 736.207 845.287 735.96C845.334 735.707 845.357 735.427 845.357 735.12V733.9C845.357 733.593 845.334 733.317 845.287 733.07C845.241 732.817 845.164 732.6 845.057 732.42C844.951 732.24 844.811 732.103 844.637 732.01C844.471 731.91 844.267 731.86 844.027 731.86C843.787 731.86 843.581 731.91 843.407 732.01C843.241 732.103 843.104 732.24 842.997 732.42C842.891 732.6 842.814 732.817 842.767 733.07C842.721 733.317 842.697 733.593 842.697 733.9V735.12C842.697 735.427 842.721 735.707 842.767 735.96C842.814 736.207 842.891 736.42 842.997 736.6C843.104 736.78 843.241 736.92 843.407 737.02C843.581 737.113 843.787 737.16 844.027 737.16ZM847.903 738V737.06H849.863V731.84H849.783L848.163 733.57L847.473 732.95L849.253 731.02H850.973V737.06H852.673V738H847.903ZM853.9 738V737.06H855.86V731.84H855.78L854.16 733.57L853.47 732.95L855.25 731.02H856.97V737.06H858.67V738H853.9ZM755.423 748V747.06H757.383V741.84H757.303L755.683 743.57L754.993 742.95L756.773 741.02H758.493V747.06H760.193V748H755.423ZM761.419 748V747.06H763.379V741.84H763.299L761.679 743.57L760.989 742.95L762.769 741.02H764.489V747.06H766.189V748H761.419ZM769.535 748.12C769.102 748.12 768.725 748.04 768.405 747.88C768.085 747.713 767.822 747.477 767.615 747.17C767.408 746.863 767.255 746.487 767.155 746.04C767.055 745.593 767.005 745.083 767.005 744.51C767.005 743.943 767.055 743.437 767.155 742.99C767.255 742.537 767.408 742.157 767.615 741.85C767.822 741.543 768.085 741.31 768.405 741.15C768.725 740.983 769.102 740.9 769.535 740.9C770.402 740.9 771.038 741.217 771.445 741.85C771.858 742.483 772.065 743.37 772.065 744.51C772.065 745.65 771.858 746.537 771.445 747.17C771.038 747.803 770.402 748.12 769.535 748.12ZM769.535 747.16C769.775 747.16 769.978 747.113 770.145 747.02C770.318 746.92 770.458 746.78 770.565 746.6C770.672 746.42 770.748 746.207 770.795 745.96C770.842 745.707 770.865 745.427 770.865 745.12V743.9C770.865 743.593 770.842 743.317 770.795 743.07C770.748 742.817 770.672 742.6 770.565 742.42C770.458 742.24 770.318 742.103 770.145 742.01C769.978 741.91 769.775 741.86 769.535 741.86C769.295 741.86 769.088 741.91 768.915 742.01C768.748 742.103 768.612 742.24 768.505 742.42C768.398 742.6 768.322 742.817 768.275 743.07C768.228 743.317 768.205 743.593 768.205 743.9V745.12C768.205 745.427 768.228 745.707 768.275 745.96C768.322 746.207 768.398 746.42 768.505 746.6C768.612 746.78 768.748 746.92 768.915 747.02C769.088 747.113 769.295 747.16 769.535 747.16ZM773.411 748V747.06H775.371V741.84H775.291L773.671 743.57L772.981 742.95L774.761 741.02H776.481V747.06H778.181V748H773.411ZM779.407 748V747.06H781.367V741.84H781.287L779.667 743.57L778.977 742.95L780.757 741.02H782.477V747.06H784.177V748H779.407ZM785.403 748V747.06H787.363V741.84H787.283L785.663 743.57L784.973 742.95L786.753 741.02H788.473V747.06H790.173V748H785.403ZM793.52 748.12C793.086 748.12 792.71 748.04 792.39 747.88C792.07 747.713 791.806 747.477 791.6 747.17C791.393 746.863 791.24 746.487 791.14 746.04C791.04 745.593 790.99 745.083 790.99 744.51C790.99 743.943 791.04 743.437 791.14 742.99C791.24 742.537 791.393 742.157 791.6 741.85C791.806 741.543 792.07 741.31 792.39 741.15C792.71 740.983 793.086 740.9 793.52 740.9C794.386 740.9 795.023 741.217 795.43 741.85C795.843 742.483 796.05 743.37 796.05 744.51C796.05 745.65 795.843 746.537 795.43 747.17C795.023 747.803 794.386 748.12 793.52 748.12ZM793.52 747.16C793.76 747.16 793.963 747.113 794.13 747.02C794.303 746.92 794.443 746.78 794.55 746.6C794.656 746.42 794.733 746.207 794.78 745.96C794.826 745.707 794.85 745.427 794.85 745.12V743.9C794.85 743.593 794.826 743.317 794.78 743.07C794.733 742.817 794.656 742.6 794.55 742.42C794.443 742.24 794.303 742.103 794.13 742.01C793.963 741.91 793.76 741.86 793.52 741.86C793.28 741.86 793.073 741.91 792.9 742.01C792.733 742.103 792.596 742.24 792.49 742.42C792.383 742.6 792.306 742.817 792.26 743.07C792.213 743.317 792.19 743.593 792.19 743.9V745.12C792.19 745.427 792.213 745.707 792.26 745.96C792.306 746.207 792.383 746.42 792.49 746.6C792.596 746.78 792.733 746.92 792.9 747.02C793.073 747.113 793.28 747.16 793.52 747.16ZM797.396 748V747.06H799.356V741.84H799.276L797.656 743.57L796.966 742.95L798.746 741.02H800.466V747.06H802.166V748H797.396ZM805.512 748.12C805.078 748.12 804.702 748.04 804.382 747.88C804.062 747.713 803.798 747.477 803.592 747.17C803.385 746.863 803.232 746.487 803.132 746.04C803.032 745.593 802.982 745.083 802.982 744.51C802.982 743.943 803.032 743.437 803.132 742.99C803.232 742.537 803.385 742.157 803.592 741.85C803.798 741.543 804.062 741.31 804.382 741.15C804.702 740.983 805.078 740.9 805.512 740.9C806.378 740.9 807.015 741.217 807.422 741.85C807.835 742.483 808.042 743.37 808.042 744.51C808.042 745.65 807.835 746.537 807.422 747.17C807.015 747.803 806.378 748.12 805.512 748.12ZM805.512 747.16C805.752 747.16 805.955 747.113 806.122 747.02C806.295 746.92 806.435 746.78 806.542 746.6C806.648 746.42 806.725 746.207 806.772 745.96C806.818 745.707 806.842 745.427 806.842 745.12V743.9C806.842 743.593 806.818 743.317 806.772 743.07C806.725 742.817 806.648 742.6 806.542 742.42C806.435 742.24 806.295 742.103 806.122 742.01C805.955 741.91 805.752 741.86 805.512 741.86C805.272 741.86 805.065 741.91 804.892 742.01C804.725 742.103 804.588 742.24 804.482 742.42C804.375 742.6 804.298 742.817 804.252 743.07C804.205 743.317 804.182 743.593 804.182 743.9V745.12C804.182 745.427 804.205 745.707 804.252 745.96C804.298 746.207 804.375 746.42 804.482 746.6C804.588 746.78 804.725 746.92 804.892 747.02C805.065 747.113 805.272 747.16 805.512 747.16ZM811.508 748.12C811.074 748.12 810.698 748.04 810.378 747.88C810.058 747.713 809.794 747.477 809.588 747.17C809.381 746.863 809.228 746.487 809.128 746.04C809.028 745.593 808.978 745.083 808.978 744.51C808.978 743.943 809.028 743.437 809.128 742.99C809.228 742.537 809.381 742.157 809.588 741.85C809.794 741.543 810.058 741.31 810.378 741.15C810.698 740.983 811.074 740.9 811.508 740.9C812.374 740.9 813.011 741.217 813.418 741.85C813.831 742.483 814.038 743.37 814.038 744.51C814.038 745.65 813.831 746.537 813.418 747.17C813.011 747.803 812.374 748.12 811.508 748.12ZM811.508 747.16C811.748 747.16 811.951 747.113 812.118 747.02C812.291 746.92 812.431 746.78 812.538 746.6C812.644 746.42 812.721 746.207 812.768 745.96C812.814 745.707 812.838 745.427 812.838 745.12V743.9C812.838 743.593 812.814 743.317 812.768 743.07C812.721 742.817 812.644 742.6 812.538 742.42C812.431 742.24 812.291 742.103 812.118 742.01C811.951 741.91 811.748 741.86 811.508 741.86C811.268 741.86 811.061 741.91 810.888 742.01C810.721 742.103 810.584 742.24 810.478 742.42C810.371 742.6 810.294 742.817 810.248 743.07C810.201 743.317 810.178 743.593 810.178 743.9V745.12C810.178 745.427 810.201 745.707 810.248 745.96C810.294 746.207 810.371 746.42 810.478 746.6C810.584 746.78 810.721 746.92 810.888 747.02C811.061 747.113 811.268 747.16 811.508 747.16ZM817.504 748.12C817.071 748.12 816.694 748.04 816.374 747.88C816.054 747.713 815.791 747.477 815.584 747.17C815.377 746.863 815.224 746.487 815.124 746.04C815.024 745.593 814.974 745.083 814.974 744.51C814.974 743.943 815.024 743.437 815.124 742.99C815.224 742.537 815.377 742.157 815.584 741.85C815.791 741.543 816.054 741.31 816.374 741.15C816.694 740.983 817.071 740.9 817.504 740.9C818.371 740.9 819.007 741.217 819.414 741.85C819.827 742.483 820.034 743.37 820.034 744.51C820.034 745.65 819.827 746.537 819.414 747.17C819.007 747.803 818.371 748.12 817.504 748.12ZM817.504 747.16C817.744 747.16 817.947 747.113 818.114 747.02C818.287 746.92 818.427 746.78 818.534 746.6C818.641 746.42 818.717 746.207 818.764 745.96C818.811 745.707 818.834 745.427 818.834 745.12V743.9C818.834 743.593 818.811 743.317 818.764 743.07C818.717 742.817 818.641 742.6 818.534 742.42C818.427 742.24 818.287 742.103 818.114 742.01C817.947 741.91 817.744 741.86 817.504 741.86C817.264 741.86 817.057 741.91 816.884 742.01C816.717 742.103 816.581 742.24 816.474 742.42C816.367 742.6 816.291 742.817 816.244 743.07C816.197 743.317 816.174 743.593 816.174 743.9V745.12C816.174 745.427 816.197 745.707 816.244 745.96C816.291 746.207 816.367 746.42 816.474 746.6C816.581 746.78 816.717 746.92 816.884 747.02C817.057 747.113 817.264 747.16 817.504 747.16ZM821.38 748V747.06H823.34V741.84H823.26L821.64 743.57L820.95 742.95L822.73 741.02H824.45V747.06H826.15V748H821.38ZM829.496 748.12C829.063 748.12 828.686 748.04 828.366 747.88C828.046 747.713 827.783 747.477 827.576 747.17C827.369 746.863 827.216 746.487 827.116 746.04C827.016 745.593 826.966 745.083 826.966 744.51C826.966 743.943 827.016 743.437 827.116 742.99C827.216 742.537 827.369 742.157 827.576 741.85C827.783 741.543 828.046 741.31 828.366 741.15C828.686 740.983 829.063 740.9 829.496 740.9C830.363 740.9 830.999 741.217 831.406 741.85C831.819 742.483 832.026 743.37 832.026 744.51C832.026 745.65 831.819 746.537 831.406 747.17C830.999 747.803 830.363 748.12 829.496 748.12ZM829.496 747.16C829.736 747.16 829.939 747.113 830.106 747.02C830.279 746.92 830.419 746.78 830.526 746.6C830.633 746.42 830.709 746.207 830.756 745.96C830.803 745.707 830.826 745.427 830.826 745.12V743.9C830.826 743.593 830.803 743.317 830.756 743.07C830.709 742.817 830.633 742.6 830.526 742.42C830.419 742.24 830.279 742.103 830.106 742.01C829.939 741.91 829.736 741.86 829.496 741.86C829.256 741.86 829.049 741.91 828.876 742.01C828.709 742.103 828.573 742.24 828.466 742.42C828.359 742.6 828.283 742.817 828.236 743.07C828.189 743.317 828.166 743.593 828.166 743.9V745.12C828.166 745.427 828.189 745.707 828.236 745.96C828.283 746.207 828.359 746.42 828.466 746.6C828.573 746.78 828.709 746.92 828.876 747.02C829.049 747.113 829.256 747.16 829.496 747.16ZM833.372 748V747.06H835.332V741.84H835.252L833.632 743.57L832.942 742.95L834.722 741.02H836.442V747.06H838.142V748H833.372ZM841.488 748.12C841.055 748.12 840.678 748.04 840.358 747.88C840.038 747.713 839.775 747.477 839.568 747.17C839.362 746.863 839.208 746.487 839.108 746.04C839.008 745.593 838.958 745.083 838.958 744.51C838.958 743.943 839.008 743.437 839.108 742.99C839.208 742.537 839.362 742.157 839.568 741.85C839.775 741.543 840.038 741.31 840.358 741.15C840.678 740.983 841.055 740.9 841.488 740.9C842.355 740.9 842.992 741.217 843.398 741.85C843.812 742.483 844.018 743.37 844.018 744.51C844.018 745.65 843.812 746.537 843.398 747.17C842.992 747.803 842.355 748.12 841.488 748.12ZM841.488 747.16C841.728 747.16 841.932 747.113 842.098 747.02C842.272 746.92 842.412 746.78 842.518 746.6C842.625 746.42 842.702 746.207 842.748 745.96C842.795 745.707 842.818 745.427 842.818 745.12V743.9C842.818 743.593 842.795 743.317 842.748 743.07C842.702 742.817 842.625 742.6 842.518 742.42C842.412 742.24 842.272 742.103 842.098 742.01C841.932 741.91 841.728 741.86 841.488 741.86C841.248 741.86 841.042 741.91 840.868 742.01C840.702 742.103 840.565 742.24 840.458 742.42C840.352 742.6 840.275 742.817 840.228 743.07C840.182 743.317 840.158 743.593 840.158 743.9V745.12C840.158 745.427 840.182 745.707 840.228 745.96C840.275 746.207 840.352 746.42 840.458 746.6C840.565 746.78 840.702 746.92 840.868 747.02C841.042 747.113 841.248 747.16 841.488 747.16ZM847.484 748.12C847.051 748.12 846.674 748.04 846.354 747.88C846.034 747.713 845.771 747.477 845.564 747.17C845.358 746.863 845.204 746.487 845.104 746.04C845.004 745.593 844.954 745.083 844.954 744.51C844.954 743.943 845.004 743.437 845.104 742.99C845.204 742.537 845.358 742.157 845.564 741.85C845.771 741.543 846.034 741.31 846.354 741.15C846.674 740.983 847.051 740.9 847.484 740.9C848.351 740.9 848.988 741.217 849.394 741.85C849.808 742.483 850.014 743.37 850.014 744.51C850.014 745.65 849.808 746.537 849.394 747.17C848.988 747.803 848.351 748.12 847.484 748.12ZM847.484 747.16C847.724 747.16 847.928 747.113 848.094 747.02C848.268 746.92 848.408 746.78 848.514 746.6C848.621 746.42 848.698 746.207 848.744 745.96C848.791 745.707 848.814 745.427 848.814 745.12V743.9C848.814 743.593 848.791 743.317 848.744 743.07C848.698 742.817 848.621 742.6 848.514 742.42C848.408 742.24 848.268 742.103 848.094 742.01C847.928 741.91 847.724 741.86 847.484 741.86C847.244 741.86 847.038 741.91 846.864 742.01C846.698 742.103 846.561 742.24 846.454 742.42C846.348 742.6 846.271 742.817 846.224 743.07C846.178 743.317 846.154 743.593 846.154 743.9V745.12C846.154 745.427 846.178 745.707 846.224 745.96C846.271 746.207 846.348 746.42 846.454 746.6C846.561 746.78 846.698 746.92 846.864 747.02C847.038 747.113 847.244 747.16 847.484 747.16ZM853.48 748.12C853.047 748.12 852.67 748.04 852.35 747.88C852.03 747.713 851.767 747.477 851.56 747.17C851.354 746.863 851.2 746.487 851.1 746.04C851 745.593 850.95 745.083 850.95 744.51C850.95 743.943 851 743.437 851.1 742.99C851.2 742.537 851.354 742.157 851.56 741.85C851.767 741.543 852.03 741.31 852.35 741.15C852.67 740.983 853.047 740.9 853.48 740.9C854.347 740.9 854.984 741.217 855.39 741.85C855.804 742.483 856.01 743.37 856.01 744.51C856.01 745.65 855.804 746.537 855.39 747.17C854.984 747.803 854.347 748.12 853.48 748.12ZM853.48 747.16C853.72 747.16 853.924 747.113 854.09 747.02C854.264 746.92 854.404 746.78 854.51 746.6C854.617 746.42 854.694 746.207 854.74 745.96C854.787 745.707 854.81 745.427 854.81 745.12V743.9C854.81 743.593 854.787 743.317 854.74 743.07C854.694 742.817 854.617 742.6 854.51 742.42C854.404 742.24 854.264 742.103 854.09 742.01C853.924 741.91 853.72 741.86 853.48 741.86C853.24 741.86 853.034 741.91 852.86 742.01C852.694 742.103 852.557 742.24 852.45 742.42C852.344 742.6 852.267 742.817 852.22 743.07C852.174 743.317 852.15 743.593 852.15 743.9V745.12C852.15 745.427 852.174 745.707 852.22 745.96C852.267 746.207 852.344 746.42 852.45 746.6C852.557 746.78 852.694 746.92 852.86 747.02C853.034 747.113 853.24 747.16 853.48 747.16ZM766.996 758.12C766.563 758.12 766.186 758.04 765.866 757.88C765.546 757.713 765.283 757.477 765.076 757.17C764.869 756.863 764.716 756.487 764.616 756.04C764.516 755.593 764.466 755.083 764.466 754.51C764.466 753.943 764.516 753.437 764.616 752.99C764.716 752.537 764.869 752.157 765.076 751.85C765.283 751.543 765.546 751.31 765.866 751.15C766.186 750.983 766.563 750.9 766.996 750.9C767.863 750.9 768.499 751.217 768.906 751.85C769.319 752.483 769.526 753.37 769.526 754.51C769.526 755.65 769.319 756.537 768.906 757.17C768.499 757.803 767.863 758.12 766.996 758.12ZM766.996 757.16C767.236 757.16 767.439 757.113 767.606 757.02C767.779 756.92 767.919 756.78 768.026 756.6C768.133 756.42 768.209 756.207 768.256 755.96C768.303 755.707 768.326 755.427 768.326 755.12V753.9C768.326 753.593 768.303 753.317 768.256 753.07C768.209 752.817 768.133 752.6 768.026 752.42C767.919 752.24 767.779 752.103 767.606 752.01C767.439 751.91 767.236 751.86 766.996 751.86C766.756 751.86 766.549 751.91 766.376 752.01C766.209 752.103 766.073 752.24 765.966 752.42C765.859 752.6 765.783 752.817 765.736 753.07C765.689 753.317 765.666 753.593 765.666 753.9V755.12C765.666 755.427 765.689 755.707 765.736 755.96C765.783 756.207 765.859 756.42 765.966 756.6C766.073 756.78 766.209 756.92 766.376 757.02C766.549 757.113 766.756 757.16 766.996 757.16ZM770.872 758V757.06H772.832V751.84H772.752L771.132 753.57L770.442 752.95L772.222 751.02H773.942V757.06H775.642V758H770.872ZM776.868 758V757.06H778.828V751.84H778.748L777.128 753.57L776.438 752.95L778.218 751.02H779.938V757.06H781.638V758H776.868ZM784.984 758.12C784.551 758.12 784.174 758.04 783.854 757.88C783.534 757.713 783.271 757.477 783.064 757.17C782.858 756.863 782.704 756.487 782.604 756.04C782.504 755.593 782.454 755.083 782.454 754.51C782.454 753.943 782.504 753.437 782.604 752.99C782.704 752.537 782.858 752.157 783.064 751.85C783.271 751.543 783.534 751.31 783.854 751.15C784.174 750.983 784.551 750.9 784.984 750.9C785.851 750.9 786.488 751.217 786.894 751.85C787.308 752.483 787.514 753.37 787.514 754.51C787.514 755.65 787.308 756.537 786.894 757.17C786.488 757.803 785.851 758.12 784.984 758.12ZM784.984 757.16C785.224 757.16 785.428 757.113 785.594 757.02C785.768 756.92 785.908 756.78 786.014 756.6C786.121 756.42 786.198 756.207 786.244 755.96C786.291 755.707 786.314 755.427 786.314 755.12V753.9C786.314 753.593 786.291 753.317 786.244 753.07C786.198 752.817 786.121 752.6 786.014 752.42C785.908 752.24 785.768 752.103 785.594 752.01C785.428 751.91 785.224 751.86 784.984 751.86C784.744 751.86 784.538 751.91 784.364 752.01C784.198 752.103 784.061 752.24 783.954 752.42C783.848 752.6 783.771 752.817 783.724 753.07C783.678 753.317 783.654 753.593 783.654 753.9V755.12C783.654 755.427 783.678 755.707 783.724 755.96C783.771 756.207 783.848 756.42 783.954 756.6C784.061 756.78 784.198 756.92 784.364 757.02C784.538 757.113 784.744 757.16 784.984 757.16ZM788.86 758V757.06H790.82V751.84H790.74L789.12 753.57L788.43 752.95L790.21 751.02H791.93V757.06H793.63V758H788.86ZM796.977 758.12C796.543 758.12 796.167 758.04 795.847 757.88C795.527 757.713 795.263 757.477 795.057 757.17C794.85 756.863 794.697 756.487 794.597 756.04C794.497 755.593 794.447 755.083 794.447 754.51C794.447 753.943 794.497 753.437 794.597 752.99C794.697 752.537 794.85 752.157 795.057 751.85C795.263 751.543 795.527 751.31 795.847 751.15C796.167 750.983 796.543 750.9 796.977 750.9C797.843 750.9 798.48 751.217 798.887 751.85C799.3 752.483 799.507 753.37 799.507 754.51C799.507 755.65 799.3 756.537 798.887 757.17C798.48 757.803 797.843 758.12 796.977 758.12ZM796.977 757.16C797.217 757.16 797.42 757.113 797.587 757.02C797.76 756.92 797.9 756.78 798.007 756.6C798.113 756.42 798.19 756.207 798.237 755.96C798.283 755.707 798.307 755.427 798.307 755.12V753.9C798.307 753.593 798.283 753.317 798.237 753.07C798.19 752.817 798.113 752.6 798.007 752.42C797.9 752.24 797.76 752.103 797.587 752.01C797.42 751.91 797.217 751.86 796.977 751.86C796.737 751.86 796.53 751.91 796.357 752.01C796.19 752.103 796.053 752.24 795.947 752.42C795.84 752.6 795.763 752.817 795.717 753.07C795.67 753.317 795.647 753.593 795.647 753.9V755.12C795.647 755.427 795.67 755.707 795.717 755.96C795.763 756.207 795.84 756.42 795.947 756.6C796.053 756.78 796.19 756.92 796.357 757.02C796.53 757.113 796.737 757.16 796.977 757.16ZM802.973 758.12C802.539 758.12 802.163 758.04 801.843 757.88C801.523 757.713 801.259 757.477 801.053 757.17C800.846 756.863 800.693 756.487 800.593 756.04C800.493 755.593 800.443 755.083 800.443 754.51C800.443 753.943 800.493 753.437 800.593 752.99C800.693 752.537 800.846 752.157 801.053 751.85C801.259 751.543 801.523 751.31 801.843 751.15C802.163 750.983 802.539 750.9 802.973 750.9C803.839 750.9 804.476 751.217 804.883 751.85C805.296 752.483 805.503 753.37 805.503 754.51C805.503 755.65 805.296 756.537 804.883 757.17C804.476 757.803 803.839 758.12 802.973 758.12ZM802.973 757.16C803.213 757.16 803.416 757.113 803.583 757.02C803.756 756.92 803.896 756.78 804.003 756.6C804.109 756.42 804.186 756.207 804.233 755.96C804.279 755.707 804.303 755.427 804.303 755.12V753.9C804.303 753.593 804.279 753.317 804.233 753.07C804.186 752.817 804.109 752.6 804.003 752.42C803.896 752.24 803.756 752.103 803.583 752.01C803.416 751.91 803.213 751.86 802.973 751.86C802.733 751.86 802.526 751.91 802.353 752.01C802.186 752.103 802.049 752.24 801.943 752.42C801.836 752.6 801.759 752.817 801.713 753.07C801.666 753.317 801.643 753.593 801.643 753.9V755.12C801.643 755.427 801.666 755.707 801.713 755.96C801.759 756.207 801.836 756.42 801.943 756.6C802.049 756.78 802.186 756.92 802.353 757.02C802.526 757.113 802.733 757.16 802.973 757.16ZM808.969 758.12C808.535 758.12 808.159 758.04 807.839 757.88C807.519 757.713 807.255 757.477 807.049 757.17C806.842 756.863 806.689 756.487 806.589 756.04C806.489 755.593 806.439 755.083 806.439 754.51C806.439 753.943 806.489 753.437 806.589 752.99C806.689 752.537 806.842 752.157 807.049 751.85C807.255 751.543 807.519 751.31 807.839 751.15C808.159 750.983 808.535 750.9 808.969 750.9C809.835 750.9 810.472 751.217 810.879 751.85C811.292 752.483 811.499 753.37 811.499 754.51C811.499 755.65 811.292 756.537 810.879 757.17C810.472 757.803 809.835 758.12 808.969 758.12ZM808.969 757.16C809.209 757.16 809.412 757.113 809.579 757.02C809.752 756.92 809.892 756.78 809.999 756.6C810.105 756.42 810.182 756.207 810.229 755.96C810.275 755.707 810.299 755.427 810.299 755.12V753.9C810.299 753.593 810.275 753.317 810.229 753.07C810.182 752.817 810.105 752.6 809.999 752.42C809.892 752.24 809.752 752.103 809.579 752.01C809.412 751.91 809.209 751.86 808.969 751.86C808.729 751.86 808.522 751.91 808.349 752.01C808.182 752.103 808.045 752.24 807.939 752.42C807.832 752.6 807.755 752.817 807.709 753.07C807.662 753.317 807.639 753.593 807.639 753.9V755.12C807.639 755.427 807.662 755.707 807.709 755.96C807.755 756.207 807.832 756.42 807.939 756.6C808.045 756.78 808.182 756.92 808.349 757.02C808.522 757.113 808.729 757.16 808.969 757.16ZM814.965 758.12C814.532 758.12 814.155 758.04 813.835 757.88C813.515 757.713 813.252 757.477 813.045 757.17C812.838 756.863 812.685 756.487 812.585 756.04C812.485 755.593 812.435 755.083 812.435 754.51C812.435 753.943 812.485 753.437 812.585 752.99C812.685 752.537 812.838 752.157 813.045 751.85C813.252 751.543 813.515 751.31 813.835 751.15C814.155 750.983 814.532 750.9 814.965 750.9C815.832 750.9 816.468 751.217 816.875 751.85C817.288 752.483 817.495 753.37 817.495 754.51C817.495 755.65 817.288 756.537 816.875 757.17C816.468 757.803 815.832 758.12 814.965 758.12ZM814.965 757.16C815.205 757.16 815.408 757.113 815.575 757.02C815.748 756.92 815.888 756.78 815.995 756.6C816.102 756.42 816.178 756.207 816.225 755.96C816.272 755.707 816.295 755.427 816.295 755.12V753.9C816.295 753.593 816.272 753.317 816.225 753.07C816.178 752.817 816.102 752.6 815.995 752.42C815.888 752.24 815.748 752.103 815.575 752.01C815.408 751.91 815.205 751.86 814.965 751.86C814.725 751.86 814.518 751.91 814.345 752.01C814.178 752.103 814.042 752.24 813.935 752.42C813.828 752.6 813.752 752.817 813.705 753.07C813.658 753.317 813.635 753.593 813.635 753.9V755.12C813.635 755.427 813.658 755.707 813.705 755.96C813.752 756.207 813.828 756.42 813.935 756.6C814.042 756.78 814.178 756.92 814.345 757.02C814.518 757.113 814.725 757.16 814.965 757.16ZM818.841 758V757.06H820.801V751.84H820.721L819.101 753.57L818.411 752.95L820.191 751.02H821.911V757.06H823.611V758H818.841ZM826.957 758.12C826.524 758.12 826.147 758.04 825.827 757.88C825.507 757.713 825.244 757.477 825.037 757.17C824.83 756.863 824.677 756.487 824.577 756.04C824.477 755.593 824.427 755.083 824.427 754.51C824.427 753.943 824.477 753.437 824.577 752.99C824.677 752.537 824.83 752.157 825.037 751.85C825.244 751.543 825.507 751.31 825.827 751.15C826.147 750.983 826.524 750.9 826.957 750.9C827.824 750.9 828.46 751.217 828.867 751.85C829.28 752.483 829.487 753.37 829.487 754.51C829.487 755.65 829.28 756.537 828.867 757.17C828.46 757.803 827.824 758.12 826.957 758.12ZM826.957 757.16C827.197 757.16 827.4 757.113 827.567 757.02C827.74 756.92 827.88 756.78 827.987 756.6C828.094 756.42 828.17 756.207 828.217 755.96C828.264 755.707 828.287 755.427 828.287 755.12V753.9C828.287 753.593 828.264 753.317 828.217 753.07C828.17 752.817 828.094 752.6 827.987 752.42C827.88 752.24 827.74 752.103 827.567 752.01C827.4 751.91 827.197 751.86 826.957 751.86C826.717 751.86 826.51 751.91 826.337 752.01C826.17 752.103 826.034 752.24 825.927 752.42C825.82 752.6 825.744 752.817 825.697 753.07C825.65 753.317 825.627 753.593 825.627 753.9V755.12C825.627 755.427 825.65 755.707 825.697 755.96C825.744 756.207 825.82 756.42 825.927 756.6C826.034 756.78 826.17 756.92 826.337 757.02C826.51 757.113 826.717 757.16 826.957 757.16ZM830.833 758V757.06H832.793V751.84H832.713L831.093 753.57L830.403 752.95L832.183 751.02H833.903V757.06H835.603V758H830.833ZM838.949 758.12C838.516 758.12 838.139 758.04 837.819 757.88C837.499 757.713 837.236 757.477 837.029 757.17C836.823 756.863 836.669 756.487 836.569 756.04C836.469 755.593 836.419 755.083 836.419 754.51C836.419 753.943 836.469 753.437 836.569 752.99C836.669 752.537 836.823 752.157 837.029 751.85C837.236 751.543 837.499 751.31 837.819 751.15C838.139 750.983 838.516 750.9 838.949 750.9C839.816 750.9 840.453 751.217 840.859 751.85C841.273 752.483 841.479 753.37 841.479 754.51C841.479 755.65 841.273 756.537 840.859 757.17C840.453 757.803 839.816 758.12 838.949 758.12ZM838.949 757.16C839.189 757.16 839.393 757.113 839.559 757.02C839.733 756.92 839.873 756.78 839.979 756.6C840.086 756.42 840.163 756.207 840.209 755.96C840.256 755.707 840.279 755.427 840.279 755.12V753.9C840.279 753.593 840.256 753.317 840.209 753.07C840.163 752.817 840.086 752.6 839.979 752.42C839.873 752.24 839.733 752.103 839.559 752.01C839.393 751.91 839.189 751.86 838.949 751.86C838.709 751.86 838.503 751.91 838.329 752.01C838.163 752.103 838.026 752.24 837.919 752.42C837.813 752.6 837.736 752.817 837.689 753.07C837.643 753.317 837.619 753.593 837.619 753.9V755.12C837.619 755.427 837.643 755.707 837.689 755.96C837.736 756.207 837.813 756.42 837.919 756.6C838.026 756.78 838.163 756.92 838.329 757.02C838.503 757.113 838.709 757.16 838.949 757.16ZM842.825 758V757.06H844.785V751.84H844.705L843.085 753.57L842.395 752.95L844.175 751.02H845.895V757.06H847.595V758H842.825ZM850.941 758.12C850.508 758.12 850.131 758.04 849.811 757.88C849.491 757.713 849.228 757.477 849.021 757.17C848.815 756.863 848.661 756.487 848.561 756.04C848.461 755.593 848.411 755.083 848.411 754.51C848.411 753.943 848.461 753.437 848.561 752.99C848.661 752.537 848.815 752.157 849.021 751.85C849.228 751.543 849.491 751.31 849.811 751.15C850.131 750.983 850.508 750.9 850.941 750.9C851.808 750.9 852.445 751.217 852.851 751.85C853.265 752.483 853.471 753.37 853.471 754.51C853.471 755.65 853.265 756.537 852.851 757.17C852.445 757.803 851.808 758.12 850.941 758.12ZM850.941 757.16C851.181 757.16 851.385 757.113 851.551 757.02C851.725 756.92 851.865 756.78 851.971 756.6C852.078 756.42 852.155 756.207 852.201 755.96C852.248 755.707 852.271 755.427 852.271 755.12V753.9C852.271 753.593 852.248 753.317 852.201 753.07C852.155 752.817 852.078 752.6 851.971 752.42C851.865 752.24 851.725 752.103 851.551 752.01C851.385 751.91 851.181 751.86 850.941 751.86C850.701 751.86 850.495 751.91 850.321 752.01C850.155 752.103 850.018 752.24 849.911 752.42C849.805 752.6 849.728 752.817 849.681 753.07C849.635 753.317 849.611 753.593 849.611 753.9V755.12C849.611 755.427 849.635 755.707 849.681 755.96C849.728 756.207 849.805 756.42 849.911 756.6C850.018 756.78 850.155 756.92 850.321 757.02C850.495 757.113 850.701 757.16 850.941 757.16ZM776.693 768V767.06H778.653V761.84H778.573L776.953 763.57L776.263 762.95L778.043 761.02H779.763V767.06H781.462V768H776.693ZM782.689 768V767.06H784.649V761.84H784.569L782.949 763.57L782.259 762.95L784.039 761.02H785.759V767.06H787.459V768H782.689ZM788.685 768V767.06H790.645V761.84H790.565L788.945 763.57L788.255 762.95L790.035 761.02H791.755V767.06H793.455V768H788.685ZM794.681 768V767.06H796.641V761.84H796.561L794.941 763.57L794.251 762.95L796.031 761.02H797.751V767.06H799.451V768H794.681ZM802.797 768.12C802.364 768.12 801.987 768.04 801.667 767.88C801.347 767.713 801.084 767.477 800.877 767.17C800.67 766.863 800.517 766.487 800.417 766.04C800.317 765.593 800.267 765.083 800.267 764.51C800.267 763.943 800.317 763.437 800.417 762.99C800.517 762.537 800.67 762.157 800.877 761.85C801.084 761.543 801.347 761.31 801.667 761.15C801.987 760.983 802.364 760.9 802.797 760.9C803.664 760.9 804.3 761.217 804.707 761.85C805.12 762.483 805.327 763.37 805.327 764.51C805.327 765.65 805.12 766.537 804.707 767.17C804.3 767.803 803.664 768.12 802.797 768.12ZM802.797 767.16C803.037 767.16 803.24 767.113 803.407 767.02C803.58 766.92 803.72 766.78 803.827 766.6C803.934 766.42 804.01 766.207 804.057 765.96C804.104 765.707 804.127 765.427 804.127 765.12V763.9C804.127 763.593 804.104 763.317 804.057 763.07C804.01 762.817 803.934 762.6 803.827 762.42C803.72 762.24 803.58 762.103 803.407 762.01C803.24 761.91 803.037 761.86 802.797 761.86C802.557 761.86 802.35 761.91 802.177 762.01C802.01 762.103 801.874 762.24 801.767 762.42C801.66 762.6 801.584 762.817 801.537 763.07C801.49 763.317 801.467 763.593 801.467 763.9V765.12C801.467 765.427 801.49 765.707 801.537 765.96C801.584 766.207 801.66 766.42 801.767 766.6C801.874 766.78 802.01 766.92 802.177 767.02C802.35 767.113 802.557 767.16 802.797 767.16ZM808.793 768.12C808.36 768.12 807.983 768.04 807.663 767.88C807.343 767.713 807.08 767.477 806.873 767.17C806.666 766.863 806.513 766.487 806.413 766.04C806.313 765.593 806.263 765.083 806.263 764.51C806.263 763.943 806.313 763.437 806.413 762.99C806.513 762.537 806.666 762.157 806.873 761.85C807.08 761.543 807.343 761.31 807.663 761.15C807.983 760.983 808.36 760.9 808.793 760.9C809.66 760.9 810.296 761.217 810.703 761.85C811.116 762.483 811.323 763.37 811.323 764.51C811.323 765.65 811.116 766.537 810.703 767.17C810.296 767.803 809.66 768.12 808.793 768.12ZM808.793 767.16C809.033 767.16 809.236 767.113 809.403 767.02C809.576 766.92 809.716 766.78 809.823 766.6C809.93 766.42 810.006 766.207 810.053 765.96C810.1 765.707 810.123 765.427 810.123 765.12V763.9C810.123 763.593 810.1 763.317 810.053 763.07C810.006 762.817 809.93 762.6 809.823 762.42C809.716 762.24 809.576 762.103 809.403 762.01C809.236 761.91 809.033 761.86 808.793 761.86C808.553 761.86 808.346 761.91 808.173 762.01C808.006 762.103 807.87 762.24 807.763 762.42C807.656 762.6 807.58 762.817 807.533 763.07C807.486 763.317 807.463 763.593 807.463 763.9V765.12C807.463 765.427 807.486 765.707 807.533 765.96C807.58 766.207 807.656 766.42 807.763 766.6C807.87 766.78 808.006 766.92 808.173 767.02C808.346 767.113 808.553 767.16 808.793 767.16ZM814.789 768.12C814.356 768.12 813.979 768.04 813.659 767.88C813.339 767.713 813.076 767.477 812.869 767.17C812.662 766.863 812.509 766.487 812.409 766.04C812.309 765.593 812.259 765.083 812.259 764.51C812.259 763.943 812.309 763.437 812.409 762.99C812.509 762.537 812.662 762.157 812.869 761.85C813.076 761.543 813.339 761.31 813.659 761.15C813.979 760.983 814.356 760.9 814.789 760.9C815.656 760.9 816.292 761.217 816.699 761.85C817.112 762.483 817.319 763.37 817.319 764.51C817.319 765.65 817.112 766.537 816.699 767.17C816.292 767.803 815.656 768.12 814.789 768.12ZM814.789 767.16C815.029 767.16 815.232 767.113 815.399 767.02C815.572 766.92 815.712 766.78 815.819 766.6C815.926 766.42 816.002 766.207 816.049 765.96C816.096 765.707 816.119 765.427 816.119 765.12V763.9C816.119 763.593 816.096 763.317 816.049 763.07C816.002 762.817 815.926 762.6 815.819 762.42C815.712 762.24 815.572 762.103 815.399 762.01C815.232 761.91 815.029 761.86 814.789 761.86C814.549 761.86 814.342 761.91 814.169 762.01C814.002 762.103 813.866 762.24 813.759 762.42C813.652 762.6 813.576 762.817 813.529 763.07C813.482 763.317 813.459 763.593 813.459 763.9V765.12C813.459 765.427 813.482 765.707 813.529 765.96C813.576 766.207 813.652 766.42 813.759 766.6C813.866 766.78 814.002 766.92 814.169 767.02C814.342 767.113 814.549 767.16 814.789 767.16ZM820.785 768.12C820.352 768.12 819.975 768.04 819.655 767.88C819.335 767.713 819.072 767.477 818.865 767.17C818.658 766.863 818.505 766.487 818.405 766.04C818.305 765.593 818.255 765.083 818.255 764.51C818.255 763.943 818.305 763.437 818.405 762.99C818.505 762.537 818.658 762.157 818.865 761.85C819.072 761.543 819.335 761.31 819.655 761.15C819.975 760.983 820.352 760.9 820.785 760.9C821.652 760.9 822.288 761.217 822.695 761.85C823.108 762.483 823.315 763.37 823.315 764.51C823.315 765.65 823.108 766.537 822.695 767.17C822.288 767.803 821.652 768.12 820.785 768.12ZM820.785 767.16C821.025 767.16 821.228 767.113 821.395 767.02C821.568 766.92 821.708 766.78 821.815 766.6C821.922 766.42 821.998 766.207 822.045 765.96C822.092 765.707 822.115 765.427 822.115 765.12V763.9C822.115 763.593 822.092 763.317 822.045 763.07C821.998 762.817 821.922 762.6 821.815 762.42C821.708 762.24 821.568 762.103 821.395 762.01C821.228 761.91 821.025 761.86 820.785 761.86C820.545 761.86 820.338 761.91 820.165 762.01C819.998 762.103 819.862 762.24 819.755 762.42C819.648 762.6 819.572 762.817 819.525 763.07C819.478 763.317 819.455 763.593 819.455 763.9V765.12C819.455 765.427 819.478 765.707 819.525 765.96C819.572 766.207 819.648 766.42 819.755 766.6C819.862 766.78 819.998 766.92 820.165 767.02C820.338 767.113 820.545 767.16 820.785 767.16ZM824.661 768V767.06H826.621V761.84H826.541L824.921 763.57L824.231 762.95L826.011 761.02H827.731V767.06H829.431V768H824.661ZM832.777 768.12C832.344 768.12 831.967 768.04 831.647 767.88C831.327 767.713 831.064 767.477 830.857 767.17C830.651 766.863 830.497 766.487 830.397 766.04C830.297 765.593 830.247 765.083 830.247 764.51C830.247 763.943 830.297 763.437 830.397 762.99C830.497 762.537 830.651 762.157 830.857 761.85C831.064 761.543 831.327 761.31 831.647 761.15C831.967 760.983 832.344 760.9 832.777 760.9C833.644 760.9 834.281 761.217 834.687 761.85C835.101 762.483 835.307 763.37 835.307 764.51C835.307 765.65 835.101 766.537 834.687 767.17C834.281 767.803 833.644 768.12 832.777 768.12ZM832.777 767.16C833.017 767.16 833.221 767.113 833.387 767.02C833.561 766.92 833.701 766.78 833.807 766.6C833.914 766.42 833.991 766.207 834.037 765.96C834.084 765.707 834.107 765.427 834.107 765.12V763.9C834.107 763.593 834.084 763.317 834.037 763.07C833.991 762.817 833.914 762.6 833.807 762.42C833.701 762.24 833.561 762.103 833.387 762.01C833.221 761.91 833.017 761.86 832.777 761.86C832.537 761.86 832.331 761.91 832.157 762.01C831.991 762.103 831.854 762.24 831.747 762.42C831.641 762.6 831.564 762.817 831.517 763.07C831.471 763.317 831.447 763.593 831.447 763.9V765.12C831.447 765.427 831.471 765.707 831.517 765.96C831.564 766.207 831.641 766.42 831.747 766.6C831.854 766.78 831.991 766.92 832.157 767.02C832.331 767.113 832.537 767.16 832.777 767.16ZM836.653 768V767.06H838.613V761.84H838.533L836.913 763.57L836.223 762.95L838.003 761.02H839.723V767.06H841.423V768H836.653ZM844.77 768.12C844.336 768.12 843.96 768.04 843.64 767.88C843.32 767.713 843.056 767.477 842.85 767.17C842.643 766.863 842.49 766.487 842.39 766.04C842.29 765.593 842.24 765.083 842.24 764.51C842.24 763.943 842.29 763.437 842.39 762.99C842.49 762.537 842.643 762.157 842.85 761.85C843.056 761.543 843.32 761.31 843.64 761.15C843.96 760.983 844.336 760.9 844.77 760.9C845.636 760.9 846.273 761.217 846.68 761.85C847.093 762.483 847.3 763.37 847.3 764.51C847.3 765.65 847.093 766.537 846.68 767.17C846.273 767.803 845.636 768.12 844.77 768.12ZM844.77 767.16C845.01 767.16 845.213 767.113 845.38 767.02C845.553 766.92 845.693 766.78 845.8 766.6C845.906 766.42 845.983 766.207 846.03 765.96C846.076 765.707 846.1 765.427 846.1 765.12V763.9C846.1 763.593 846.076 763.317 846.03 763.07C845.983 762.817 845.906 762.6 845.8 762.42C845.693 762.24 845.553 762.103 845.38 762.01C845.213 761.91 845.01 761.86 844.77 761.86C844.53 761.86 844.323 761.91 844.15 762.01C843.983 762.103 843.846 762.24 843.74 762.42C843.633 762.6 843.556 762.817 843.51 763.07C843.463 763.317 843.44 763.593 843.44 763.9V765.12C843.44 765.427 843.463 765.707 843.51 765.96C843.556 766.207 843.633 766.42 843.74 766.6C843.846 766.78 843.983 766.92 844.15 767.02C844.323 767.113 844.53 767.16 844.77 767.16ZM785.902 778.12C785.469 778.12 785.092 778.04 784.772 777.88C784.452 777.713 784.189 777.477 783.982 777.17C783.776 776.863 783.622 776.487 783.522 776.04C783.422 775.593 783.372 775.083 783.372 774.51C783.372 773.943 783.422 773.437 783.522 772.99C783.622 772.537 783.776 772.157 783.982 771.85C784.189 771.543 784.452 771.31 784.772 771.15C785.092 770.983 785.469 770.9 785.902 770.9C786.769 770.9 787.406 771.217 787.812 771.85C788.226 772.483 788.432 773.37 788.432 774.51C788.432 775.65 788.226 776.537 787.812 777.17C787.406 777.803 786.769 778.12 785.902 778.12ZM785.902 777.16C786.142 777.16 786.346 777.113 786.512 777.02C786.686 776.92 786.826 776.78 786.932 776.6C787.039 776.42 787.116 776.207 787.162 775.96C787.209 775.707 787.232 775.427 787.232 775.12V773.9C787.232 773.593 787.209 773.317 787.162 773.07C787.116 772.817 787.039 772.6 786.932 772.42C786.826 772.24 786.686 772.103 786.512 772.01C786.346 771.91 786.142 771.86 785.902 771.86C785.662 771.86 785.456 771.91 785.282 772.01C785.116 772.103 784.979 772.24 784.872 772.42C784.766 772.6 784.689 772.817 784.642 773.07C784.596 773.317 784.572 773.593 784.572 773.9V775.12C784.572 775.427 784.596 775.707 784.642 775.96C784.689 776.207 784.766 776.42 784.872 776.6C784.979 776.78 785.116 776.92 785.282 777.02C785.456 777.113 785.662 777.16 785.902 777.16ZM791.898 778.12C791.465 778.12 791.088 778.04 790.768 777.88C790.448 777.713 790.185 777.477 789.978 777.17C789.772 776.863 789.618 776.487 789.518 776.04C789.418 775.593 789.368 775.083 789.368 774.51C789.368 773.943 789.418 773.437 789.518 772.99C789.618 772.537 789.772 772.157 789.978 771.85C790.185 771.543 790.448 771.31 790.768 771.15C791.088 770.983 791.465 770.9 791.898 770.9C792.765 770.9 793.402 771.217 793.808 771.85C794.222 772.483 794.428 773.37 794.428 774.51C794.428 775.65 794.222 776.537 793.808 777.17C793.402 777.803 792.765 778.12 791.898 778.12ZM791.898 777.16C792.138 777.16 792.342 777.113 792.508 777.02C792.682 776.92 792.822 776.78 792.928 776.6C793.035 776.42 793.112 776.207 793.158 775.96C793.205 775.707 793.228 775.427 793.228 775.12V773.9C793.228 773.593 793.205 773.317 793.158 773.07C793.112 772.817 793.035 772.6 792.928 772.42C792.822 772.24 792.682 772.103 792.508 772.01C792.342 771.91 792.138 771.86 791.898 771.86C791.658 771.86 791.452 771.91 791.278 772.01C791.112 772.103 790.975 772.24 790.868 772.42C790.762 772.6 790.685 772.817 790.638 773.07C790.592 773.317 790.568 773.593 790.568 773.9V775.12C790.568 775.427 790.592 775.707 790.638 775.96C790.685 776.207 790.762 776.42 790.868 776.6C790.975 776.78 791.112 776.92 791.278 777.02C791.452 777.113 791.658 777.16 791.898 777.16ZM797.895 778.12C797.461 778.12 797.085 778.04 796.765 777.88C796.445 777.713 796.181 777.477 795.975 777.17C795.768 776.863 795.615 776.487 795.515 776.04C795.415 775.593 795.365 775.083 795.365 774.51C795.365 773.943 795.415 773.437 795.515 772.99C795.615 772.537 795.768 772.157 795.975 771.85C796.181 771.543 796.445 771.31 796.765 771.15C797.085 770.983 797.461 770.9 797.895 770.9C798.761 770.9 799.398 771.217 799.805 771.85C800.218 772.483 800.425 773.37 800.425 774.51C800.425 775.65 800.218 776.537 799.805 777.17C799.398 777.803 798.761 778.12 797.895 778.12ZM797.895 777.16C798.135 777.16 798.338 777.113 798.505 777.02C798.678 776.92 798.818 776.78 798.925 776.6C799.031 776.42 799.108 776.207 799.155 775.96C799.201 775.707 799.225 775.427 799.225 775.12V773.9C799.225 773.593 799.201 773.317 799.155 773.07C799.108 772.817 799.031 772.6 798.925 772.42C798.818 772.24 798.678 772.103 798.505 772.01C798.338 771.91 798.135 771.86 797.895 771.86C797.655 771.86 797.448 771.91 797.275 772.01C797.108 772.103 796.971 772.24 796.865 772.42C796.758 772.6 796.681 772.817 796.635 773.07C796.588 773.317 796.565 773.593 796.565 773.9V775.12C796.565 775.427 796.588 775.707 796.635 775.96C796.681 776.207 796.758 776.42 796.865 776.6C796.971 776.78 797.108 776.92 797.275 777.02C797.448 777.113 797.655 777.16 797.895 777.16ZM803.891 778.12C803.457 778.12 803.081 778.04 802.761 777.88C802.441 777.713 802.177 777.477 801.971 777.17C801.764 776.863 801.611 776.487 801.511 776.04C801.411 775.593 801.361 775.083 801.361 774.51C801.361 773.943 801.411 773.437 801.511 772.99C801.611 772.537 801.764 772.157 801.971 771.85C802.177 771.543 802.441 771.31 802.761 771.15C803.081 770.983 803.457 770.9 803.891 770.9C804.757 770.9 805.394 771.217 805.801 771.85C806.214 772.483 806.421 773.37 806.421 774.51C806.421 775.65 806.214 776.537 805.801 777.17C805.394 777.803 804.757 778.12 803.891 778.12ZM803.891 777.16C804.131 777.16 804.334 777.113 804.501 777.02C804.674 776.92 804.814 776.78 804.921 776.6C805.027 776.42 805.104 776.207 805.151 775.96C805.197 775.707 805.221 775.427 805.221 775.12V773.9C805.221 773.593 805.197 773.317 805.151 773.07C805.104 772.817 805.027 772.6 804.921 772.42C804.814 772.24 804.674 772.103 804.501 772.01C804.334 771.91 804.131 771.86 803.891 771.86C803.651 771.86 803.444 771.91 803.271 772.01C803.104 772.103 802.967 772.24 802.861 772.42C802.754 772.6 802.677 772.817 802.631 773.07C802.584 773.317 802.561 773.593 802.561 773.9V775.12C802.561 775.427 802.584 775.707 802.631 775.96C802.677 776.207 802.754 776.42 802.861 776.6C802.967 776.78 803.104 776.92 803.271 777.02C803.444 777.113 803.651 777.16 803.891 777.16ZM809.887 778.12C809.453 778.12 809.077 778.04 808.757 777.88C808.437 777.713 808.173 777.477 807.967 777.17C807.76 776.863 807.607 776.487 807.507 776.04C807.407 775.593 807.357 775.083 807.357 774.51C807.357 773.943 807.407 773.437 807.507 772.99C807.607 772.537 807.76 772.157 807.967 771.85C808.173 771.543 808.437 771.31 808.757 771.15C809.077 770.983 809.453 770.9 809.887 770.9C810.753 770.9 811.39 771.217 811.797 771.85C812.21 772.483 812.417 773.37 812.417 774.51C812.417 775.65 812.21 776.537 811.797 777.17C811.39 777.803 810.753 778.12 809.887 778.12ZM809.887 777.16C810.127 777.16 810.33 777.113 810.497 777.02C810.67 776.92 810.81 776.78 810.917 776.6C811.023 776.42 811.1 776.207 811.147 775.96C811.193 775.707 811.217 775.427 811.217 775.12V773.9C811.217 773.593 811.193 773.317 811.147 773.07C811.1 772.817 811.023 772.6 810.917 772.42C810.81 772.24 810.67 772.103 810.497 772.01C810.33 771.91 810.127 771.86 809.887 771.86C809.647 771.86 809.44 771.91 809.267 772.01C809.1 772.103 808.963 772.24 808.857 772.42C808.75 772.6 808.673 772.817 808.627 773.07C808.58 773.317 808.557 773.593 808.557 773.9V775.12C808.557 775.427 808.58 775.707 808.627 775.96C808.673 776.207 808.75 776.42 808.857 776.6C808.963 776.78 809.1 776.92 809.267 777.02C809.44 777.113 809.647 777.16 809.887 777.16ZM813.763 778V777.06H815.723V771.84H815.643L814.023 773.57L813.333 772.95L815.113 771.02H816.833V777.06H818.533V778H813.763ZM821.879 778.12C821.446 778.12 821.069 778.04 820.749 777.88C820.429 777.713 820.166 777.477 819.959 777.17C819.752 776.863 819.599 776.487 819.499 776.04C819.399 775.593 819.349 775.083 819.349 774.51C819.349 773.943 819.399 773.437 819.499 772.99C819.599 772.537 819.752 772.157 819.959 771.85C820.166 771.543 820.429 771.31 820.749 771.15C821.069 770.983 821.446 770.9 821.879 770.9C822.746 770.9 823.382 771.217 823.789 771.85C824.202 772.483 824.409 773.37 824.409 774.51C824.409 775.65 824.202 776.537 823.789 777.17C823.382 777.803 822.746 778.12 821.879 778.12ZM821.879 777.16C822.119 777.16 822.322 777.113 822.489 777.02C822.662 776.92 822.802 776.78 822.909 776.6C823.016 776.42 823.092 776.207 823.139 775.96C823.186 775.707 823.209 775.427 823.209 775.12V773.9C823.209 773.593 823.186 773.317 823.139 773.07C823.092 772.817 823.016 772.6 822.909 772.42C822.802 772.24 822.662 772.103 822.489 772.01C822.322 771.91 822.119 771.86 821.879 771.86C821.639 771.86 821.432 771.91 821.259 772.01C821.092 772.103 820.956 772.24 820.849 772.42C820.742 772.6 820.666 772.817 820.619 773.07C820.572 773.317 820.549 773.593 820.549 773.9V775.12C820.549 775.427 820.572 775.707 820.619 775.96C820.666 776.207 820.742 776.42 820.849 776.6C820.956 776.78 821.092 776.92 821.259 777.02C821.432 777.113 821.639 777.16 821.879 777.16ZM825.755 778V777.06H827.715V771.84H827.635L826.015 773.57L825.325 772.95L827.105 771.02H828.825V777.06H830.525V778H825.755ZM831.751 778V777.06H833.711V771.84H833.631L832.011 773.57L831.321 772.95L833.101 771.02H834.821V777.06H836.521V778H831.751ZM797.962 788V787.06H799.922V781.84H799.842L798.222 783.57L797.532 782.95L799.312 781.02H801.032V787.06H802.732V788H797.962ZM806.078 788.12C805.645 788.12 805.268 788.04 804.948 787.88C804.628 787.713 804.365 787.477 804.158 787.17C803.951 786.863 803.798 786.487 803.698 786.04C803.598 785.593 803.548 785.083 803.548 784.51C803.548 783.943 803.598 783.437 803.698 782.99C803.798 782.537 803.951 782.157 804.158 781.85C804.365 781.543 804.628 781.31 804.948 781.15C805.268 780.983 805.645 780.9 806.078 780.9C806.945 780.9 807.581 781.217 807.988 781.85C808.401 782.483 808.608 783.37 808.608 784.51C808.608 785.65 808.401 786.537 807.988 787.17C807.581 787.803 806.945 788.12 806.078 788.12ZM806.078 787.16C806.318 787.16 806.521 787.113 806.688 787.02C806.861 786.92 807.001 786.78 807.108 786.6C807.215 786.42 807.291 786.207 807.338 785.96C807.385 785.707 807.408 785.427 807.408 785.12V783.9C807.408 783.593 807.385 783.317 807.338 783.07C807.291 782.817 807.215 782.6 807.108 782.42C807.001 782.24 806.861 782.103 806.688 782.01C806.521 781.91 806.318 781.86 806.078 781.86C805.838 781.86 805.631 781.91 805.458 782.01C805.291 782.103 805.155 782.24 805.048 782.42C804.941 782.6 804.865 782.817 804.818 783.07C804.771 783.317 804.748 783.593 804.748 783.9V785.12C804.748 785.427 804.771 785.707 804.818 785.96C804.865 786.207 804.941 786.42 805.048 786.6C805.155 786.78 805.291 786.92 805.458 787.02C805.631 787.113 805.838 787.16 806.078 787.16ZM812.074 788.12C811.641 788.12 811.264 788.04 810.944 787.88C810.624 787.713 810.361 787.477 810.154 787.17C809.948 786.863 809.794 786.487 809.694 786.04C809.594 785.593 809.544 785.083 809.544 784.51C809.544 783.943 809.594 783.437 809.694 782.99C809.794 782.537 809.948 782.157 810.154 781.85C810.361 781.543 810.624 781.31 810.944 781.15C811.264 780.983 811.641 780.9 812.074 780.9C812.941 780.9 813.578 781.217 813.984 781.85C814.398 782.483 814.604 783.37 814.604 784.51C814.604 785.65 814.398 786.537 813.984 787.17C813.578 787.803 812.941 788.12 812.074 788.12ZM812.074 787.16C812.314 787.16 812.518 787.113 812.684 787.02C812.858 786.92 812.998 786.78 813.104 786.6C813.211 786.42 813.288 786.207 813.334 785.96C813.381 785.707 813.404 785.427 813.404 785.12V783.9C813.404 783.593 813.381 783.317 813.334 783.07C813.288 782.817 813.211 782.6 813.104 782.42C812.998 782.24 812.858 782.103 812.684 782.01C812.518 781.91 812.314 781.86 812.074 781.86C811.834 781.86 811.628 781.91 811.454 782.01C811.288 782.103 811.151 782.24 811.044 782.42C810.938 782.6 810.861 782.817 810.814 783.07C810.768 783.317 810.744 783.593 810.744 783.9V785.12C810.744 785.427 810.768 785.707 810.814 785.96C810.861 786.207 810.938 786.42 811.044 786.6C811.151 786.78 811.288 786.92 811.454 787.02C811.628 787.113 811.834 787.16 812.074 787.16ZM818.07 788.12C817.637 788.12 817.26 788.04 816.94 787.88C816.62 787.713 816.357 787.477 816.15 787.17C815.944 786.863 815.79 786.487 815.69 786.04C815.59 785.593 815.54 785.083 815.54 784.51C815.54 783.943 815.59 783.437 815.69 782.99C815.79 782.537 815.944 782.157 816.15 781.85C816.357 781.543 816.62 781.31 816.94 781.15C817.26 780.983 817.637 780.9 818.07 780.9C818.937 780.9 819.574 781.217 819.98 781.85C820.394 782.483 820.6 783.37 820.6 784.51C820.6 785.65 820.394 786.537 819.98 787.17C819.574 787.803 818.937 788.12 818.07 788.12ZM818.07 787.16C818.31 787.16 818.514 787.113 818.68 787.02C818.854 786.92 818.994 786.78 819.1 786.6C819.207 786.42 819.284 786.207 819.33 785.96C819.377 785.707 819.4 785.427 819.4 785.12V783.9C819.4 783.593 819.377 783.317 819.33 783.07C819.284 782.817 819.207 782.6 819.1 782.42C818.994 782.24 818.854 782.103 818.68 782.01C818.514 781.91 818.31 781.86 818.07 781.86C817.83 781.86 817.624 781.91 817.45 782.01C817.284 782.103 817.147 782.24 817.04 782.42C816.934 782.6 816.857 782.817 816.81 783.07C816.764 783.317 816.74 783.593 816.74 783.9V785.12C816.74 785.427 816.764 785.707 816.81 785.96C816.857 786.207 816.934 786.42 817.04 786.6C817.147 786.78 817.284 786.92 817.45 787.02C817.624 787.113 817.83 787.16 818.07 787.16ZM821.946 788V787.06H823.906V781.84H823.826L822.206 783.57L821.516 782.95L823.296 781.02H825.016V787.06H826.716V788H821.946ZM830.063 788.12C829.629 788.12 829.253 788.04 828.933 787.88C828.613 787.713 828.349 787.477 828.143 787.17C827.936 786.863 827.783 786.487 827.683 786.04C827.583 785.593 827.533 785.083 827.533 784.51C827.533 783.943 827.583 783.437 827.683 782.99C827.783 782.537 827.936 782.157 828.143 781.85C828.349 781.543 828.613 781.31 828.933 781.15C829.253 780.983 829.629 780.9 830.063 780.9C830.929 780.9 831.566 781.217 831.973 781.85C832.386 782.483 832.593 783.37 832.593 784.51C832.593 785.65 832.386 786.537 831.973 787.17C831.566 787.803 830.929 788.12 830.063 788.12ZM830.063 787.16C830.303 787.16 830.506 787.113 830.673 787.02C830.846 786.92 830.986 786.78 831.093 786.6C831.199 786.42 831.276 786.207 831.323 785.96C831.369 785.707 831.393 785.427 831.393 785.12V783.9C831.393 783.593 831.369 783.317 831.323 783.07C831.276 782.817 831.199 782.6 831.093 782.42C830.986 782.24 830.846 782.103 830.673 782.01C830.506 781.91 830.303 781.86 830.063 781.86C829.823 781.86 829.616 781.91 829.443 782.01C829.276 782.103 829.139 782.24 829.033 782.42C828.926 782.6 828.849 782.817 828.803 783.07C828.756 783.317 828.733 783.593 828.733 783.9V785.12C828.733 785.427 828.756 785.707 828.803 785.96C828.849 786.207 828.926 786.42 829.033 786.6C829.139 786.78 829.276 786.92 829.443 787.02C829.616 787.113 829.823 787.16 830.063 787.16ZM805.052 798V797.06H807.012V791.84H806.932L805.312 793.57L804.622 792.95L806.402 791.02H808.122V797.06H809.822V798H805.052ZM811.048 798V797.06H813.008V791.84H812.928L811.308 793.57L810.618 792.95L812.398 791.02H814.118V797.06H815.818V798H811.048ZM817.044 798V797.06H819.004V791.84H818.924L817.304 793.57L816.614 792.95L818.394 791.02H820.114V797.06H821.814V798H817.044Z" fill="#242424" fill-opacity="0.15"/>
<path d="M243.787 478.263L256.044 455.585L269.555 477.539L243.787 478.263ZM270.463 479.014C270.463 479.013 270.463 479.013 270.463 479.012L270.463 479.014Z" stroke="#FFC54D" stroke-width="6"/>
<path d="M704 305.5C704 320.136 692.136 332 677.5 332C662.864 332 651 320.136 651 305.5C651 290.864 662.864 279 677.5 279C692.136 279 704 290.864 704 305.5Z" fill="#FFC54D"/>
<path d="M678 269L710.043 324.5H645.957L678 269Z" fill="#FFC54D"/>
<path d="M834 305.5C834 390 765.5 462 677.5 462C589.5 462 521 391 521 305.5C521 217.5 591.5 149 677.5 149C763.5 149 834 218 834 305.5ZM533.5 305.5C533.5 384 598 449.5 677.5 449.5C757 449.5 821 385.5 821 305.5C821 225.5 757 161.5 677.5 161.5C598 161.5 533.5 227 533.5 305.5Z" fill="#4285F4"/>
<path d="M808 305.5C808 376.5 750 436 677.5 436C605 436 547 377.5 547 305.5C547 233.5 606.5 175 677.5 175C751 175 808 234.5 808 305.5ZM611 305.5C611 342.5 641.5 372 678 372C714 372 744 342 744 305.5C744 269 714.5 239 676.5 239C642 239 611 268.5 611 305.5Z" fill="#4285F4"/>
<path d="M243.945 938.965C239.072 938.965 235.113 938.495 232.07 937.555C229.052 936.59 226.739 935.254 225.131 933.547C223.523 931.84 222.422 929.836 221.828 927.535C221.234 925.234 220.938 922.736 220.938 920.039V901.744C220.938 898.973 221.222 896.413 221.791 894.062C222.385 891.688 223.473 889.622 225.057 887.865C226.665 886.109 228.99 884.748 232.033 883.783C235.076 882.794 239.047 882.299 243.945 882.299C248.621 882.299 252.382 882.781 255.227 883.746C258.096 884.686 260.273 886.022 261.758 887.754C263.242 889.486 264.244 891.527 264.764 893.877C265.283 896.202 265.543 898.751 265.543 901.521V902.189L254.744 903.451V900.668C254.744 898.095 254.423 896.116 253.779 894.73C253.136 893.32 252.035 892.343 250.477 891.799C248.918 891.23 246.741 890.945 243.945 890.945C239.863 890.945 236.845 891.589 234.891 892.875C232.936 894.161 231.959 896.685 231.959 900.445V921.152C231.959 923.651 232.392 925.568 233.258 926.904C234.124 928.215 235.435 929.118 237.191 929.613C238.973 930.083 241.236 930.318 243.982 930.318C246.778 930.318 248.955 930.083 250.514 929.613C252.072 929.118 253.161 928.203 253.779 926.867C254.423 925.507 254.744 923.527 254.744 920.93V919.186H265.543V920.188C265.543 922.884 265.296 925.37 264.801 927.646C264.306 929.923 263.329 931.914 261.869 933.621C260.41 935.303 258.245 936.615 255.375 937.555C252.505 938.495 248.695 938.965 243.945 938.965ZM346.86 938.965C341.937 938.965 337.892 938.458 334.725 937.443C331.559 936.429 329.097 935.031 327.34 933.25C325.584 931.469 324.347 929.391 323.63 927.016C322.937 924.641 322.59 922.105 322.59 919.408V902.264C322.59 899.493 322.937 896.908 323.63 894.508C324.322 892.083 325.547 889.956 327.303 888.125C329.06 886.294 331.521 884.872 334.688 883.857C337.855 882.818 341.912 882.299 346.86 882.299C351.585 882.299 355.469 882.843 358.512 883.932C361.58 885.02 363.967 886.517 365.674 888.422C367.406 890.302 368.606 892.479 369.274 894.953C369.967 897.427 370.313 900.049 370.313 902.82V918.814C370.313 921.511 369.967 924.072 369.274 926.496C368.581 928.896 367.369 931.036 365.637 932.916C363.93 934.796 361.555 936.281 358.512 937.369C355.469 938.433 351.585 938.965 346.86 938.965ZM346.86 930.318C351.016 930.318 354.121 929.638 356.174 928.277C358.228 926.917 359.255 924.368 359.255 920.633V900.779C359.255 897.093 358.215 894.533 356.137 893.098C354.084 891.663 350.992 890.945 346.86 890.945C342.778 890.945 339.549 891.65 337.174 893.061C334.824 894.446 333.649 897.019 333.649 900.779V920.633C333.649 924.393 334.824 926.954 337.174 928.314C339.525 929.65 342.753 930.318 346.86 930.318ZM429.661 938V883.227H453.411C458.706 883.227 462.812 884.08 465.732 885.787C468.651 887.469 470.692 889.758 471.855 892.652C473.018 895.522 473.599 898.751 473.599 902.338V919.148C473.599 922.785 472.98 926.026 471.743 928.871C470.531 931.716 468.465 933.955 465.546 935.588C462.627 937.196 458.594 938 453.449 938H429.661ZM440.683 929.428H452.484C456.368 929.428 459.015 928.71 460.425 927.275C461.86 925.84 462.577 923.602 462.577 920.559V900.891C462.577 897.922 461.848 895.671 460.388 894.137C458.953 892.578 456.318 891.799 452.484 891.799H440.683V929.428ZM532.947 883.227H568.832V891.539H543.932V906.086H566.012V914.027H543.932V929.688H569.24V938H532.947V883.227ZM627.327 883.227H648.813C654.825 883.227 659.303 884.6 662.247 887.346C665.191 890.067 666.663 894.52 666.663 900.705C666.663 904.936 666.081 908.411 664.919 911.133C663.756 913.829 661.789 915.833 659.018 917.145C656.272 918.456 652.512 919.111 647.737 919.111H638.348V938H627.327V883.227ZM649.481 911.059C652.277 911.059 654.12 910.255 655.01 908.646C655.901 907.014 656.346 904.552 656.346 901.262C656.346 898.392 655.913 895.98 655.047 894.025C654.182 892.046 652.45 891.057 649.852 891.057H638.348V911.059H649.481ZM722.077 929.762H732.06V891.428H722.077V883.227H752.952V891.428H743.044V929.762H752.952V938H722.077V929.762ZM812.226 883.227H848.111V891.539H823.211V906.086H845.291V914.027H823.211V929.688H848.519V938H812.226V883.227Z" fill="#F4F4F4"/>
</svg>
